999
dxfrw 0.6.3
  0
SECTION
  2
HEADER
  9
$ACADVER
  1
AC1021
  9
$DWGCODEPAGE
  3
ANSI_1252
  9
$INSBASE
 10
0
 20
0
 30
0
  9
$EXTMIN
 10
-300.8883468340263
 20
0
 30
0
  9
$EXTMAX
 10
213.7499999999994
 20
216.6459255962703
 30
0
  9
$LIMMIN
 10
0
 20
0
  9
$LIMMAX
 10
420
 20
297
  9
$ORTHOMODE
 70
    0
  9
$REGENMODE
 70
    1
  9
$FILLMODE
 70
    1
  9
$QTEXTMODE
 70
    0
  9
$MIRRTEXT
 70
    0
  9
$LTSCALE
 40
1
  9
$ATTMODE
 70
    0
  9
$TEXTSIZE
 40
2.5
  9
$TRACEWID
 40
15.68
  9
$TEXTSTYLE
  7
STANDARD
  9
$CLAYER
  8
0
  9
$CELTYPE
  6
BYLAYER
  9
$CECOLOR
 62
  256
  9
$CELTSCALE
 40
1
  9
$DISPSILH
 70
    0
  9
$DIMSCALE
 40
2.5
  9
$DIMASZ
 40
2.5
  9
$DIMEXO
 40
0.625
  9
$DIMDLI
 40
3.75
  9
$DIMRND
 40
0
  9
$DIMDLE
 40
0
  9
$DIMEXE
 40
1.25
  9
$DIMTP
 40
0
  9
$DIMTM
 40
0
  9
$DIMTXT
 40
2.5
  9
$DIMCEN
 40
2.5
  9
$DIMTSZ
 40
0
  9
$DIMTOL
 70
    0
  9
$DIMLIM
 70
    0
  9
$DIMTIH
 70
    0
  9
$DIMTOH
 70
    0
  9
$DIMSE1
 70
    0
  9
$DIMSE2
 70
    0
  9
$DIMTAD
 70
    1
  9
$DIMZIN
 70
    8
  9
$DIMBLK
  1

  9
$DIMASO
 70
    1
  9
$DIMSHO
 70
    1
  9
$DIMPOST
  1

  9
$DIMAPOST
  1

  9
$DIMALT
 70
    0
  9
$DIMALTD
 70
    3
  9
$DIMALTF
 40
0.03937
  9
$DIMLFAC
 40
1
  9
$DIMTOFL
 70
    1
  9
$DIMTVP
 40
0
  9
$DIMTIX
 70
    0
  9
$DIMSOXD
 70
    0
  9
$DIMSAH
 70
    0
  9
$DIMBLK1
  1

  9
$DIMBLK2
  1

  9
$DIMSTYLE
  2
STANDARD
  9
$DIMCLRD
 70
    0
  9
$DIMCLRE
 70
    0
  9
$DIMCLRT
 70
    0
  9
$DIMTFAC
 40
1
  9
$DIMGAP
 40
0.625
  9
$DIMJUST
 70
    0
  9
$DIMSD1
 70
    0
  9
$DIMSD2
 70
    0
  9
$DIMTOLJ
 70
    0
  9
$DIMTZIN
 70
    8
  9
$DIMALTZ
 70
    0
  9
$DIMALTTZ
 70
    0
  9
$DIMUPT
 70
    0
  9
$DIMDEC
 70
    2
  9
$DIMTDEC
 70
    2
  9
$DIMALTU
 70
    2
  9
$DIMALTTD
 70
    3
  9
$DIMTXSTY
  7
STANDARD
  9
$DIMAUNIT
 70
    0
  9
$DIMADEC
 70
    0
  9
$DIMALTRND
 40
0
  9
$DIMAZIN
 70
    0
  9
$DIMDSEP
 70
   44
  9
$DIMATFIT
 70
    3
  9
$DIMFRAC
 70
    0
  9
$DIMLDRBLK
  1
STANDARD
  9
$DIMLUNIT
 70
    2
  9
$DIMLWD
 70
   -2
  9
$DIMLWE
 70
   -2
  9
$DIMTMOVE
 70
    0
  9
$DIMFXL
 40
1
  9
$DIMFXLON
 70
    0
  9
$DIMJOGANG
 40
0.7854
  9
$DIMTFILL
 70
    0
  9
$DIMTFILLCLR
 70
    0
  9
$DIMARCSYM
 70
    0
  9
$DIMLTYPE
  6

  9
$DIMLTEX1
  6

  9
$DIMLTEX2
  6

  9
$LUNITS
 70
    2
  9
$LUPREC
 70
    4
  9
$SKETCHINC
 40
1
  9
$FILLETRAD
 40
0
  9
$AUNITS
 70
    0
  9
$AUPREC
 70
    2
  9
$MENU
  1
.
  9
$ELEVATION
 40
0
  9
$PELEVATION
 40
0
  9
$THICKNESS
 40
0
  9
$LIMCHECK
 70
    0
  9
$CHAMFERA
 40
0
  9
$CHAMFERB
 40
0
  9
$CHAMFERC
 40
0
  9
$CHAMFERD
 40
0
  9
$SKPOLY
 70
    0
  9
$USRTIMER
 70
    1
  9
$ANGBASE
 50
0
  9
$ANGDIR
 70
    0
  9
$PDMODE
 70
   96
  9
$PDSIZE
 40
-2
  9
$PLINEWID
 40
0
  9
$SPLFRAME
 70
    0
  9
$SPLINETYPE
 70
    2
  9
$SPLINESEGS
 70
    8
  9
$HANDSEED
  5
20000
  9
$SURFTAB1
 70
    6
  9
$SURFTAB2
 70
    6
  9
$SURFTYPE
 70
    6
  9
$SURFU
 70
    6
  9
$SURFV
 70
    6
  9
$UCSBASE
  2

  9
$UCSNAME
  2

  9
$UCSORG
 10
0
 20
0
 30
0
  9
$UCSXDIR
 10
1
 20
0
 30
0
  9
$UCSYDIR
 10
0
 20
1
 30
0
  9
$UCSORTHOREF
  2

  9
$UCSORTHOVIEW
 70
    0
  9
$UCSORGTOP
 10
0
 20
0
 30
0
  9
$UCSORGBOTTOM
 10
0
 20
0
 30
0
  9
$UCSORGLEFT
 10
0
 20
0
 30
0
  9
$UCSORGRIGHT
 10
0
 20
0
 30
0
  9
$UCSORGFRONT
 10
0
 20
0
 30
0
  9
$UCSORGBACK
 10
0
 20
0
 30
0
  9
$PUCSBASE
  2

  9
$PUCSNAME
  2

  9
$PUCSORG
 10
0
 20
0
 30
0
  9
$PUCSXDIR
 10
1
 20
0
 30
0
  9
$PUCSYDIR
 10
0
 20
1
 30
0
  9
$PUCSORTHOREF
  2

  9
$PUCSORTHOVIEW
 70
    0
  9
$PUCSORGTOP
 10
0
 20
0
 30
0
  9
$PUCSORGBOTTOM
 10
0
 20
0
 30
0
  9
$PUCSORGLEFT
 10
0
 20
0
 30
0
  9
$PUCSORGRIGHT
 10
0
 20
0
 30
0
  9
$PUCSORGFRONT
 10
0
 20
0
 30
0
  9
$PUCSORGBACK
 10
0
 20
0
 30
0
  9
$USERI1
 70
    0
  9
$USERI2
 70
    0
  9
$USERI3
 70
    0
  9
$USERI4
 70
    0
  9
$USERI5
 70
    0
  9
$USERR1
 40
0
  9
$USERR2
 40
0
  9
$USERR3
 40
0
  9
$USERR4
 40
0
  9
$USERR5
 40
0
  9
$WORLDVIEW
 70
    1
  9
$SHADEDGE
 70
    3
  9
$SHADEDIF
 70
   70
  9
$TILEMODE
 70
    1
  9
$MAXACTVP
 70
   64
  9
$PINSBASE
 10
177.9324324324326
 20
65.01351351351346
 30
0
  9
$PLIMCHECK
 70
    0
  9
$PEXTMIN
 10
0
 20
0
 30
0
  9
$PEXTMAX
 10
0
 20
0
 30
0
  9
$GRIDMODE
 70
    1
  9
$SNAPSTYLE
 70
    0
  9
$PLIMMIN
 10
0
 20
0
  9
$PLIMMAX
 10
297
 20
210
  9
$UNITMODE
 70
    0
  9
$VISRETAIN
 70
    1
  9
$PLINEGEN
 70
    0
  9
$PSLTSCALE
 70
    1
  9
$TREEDEPTH
 70
 3020
  9
$CMLSTYLE
  2
Standard
  9
$CMLJUST
 70
    0
  9
$CMLSCALE
 40
20
  9
$PROXYGRAPHICS
 70
    1
  9
$MEASUREMENT
 70
    1
  9
$CELWEIGHT
370
   -1
  9
$ENDCAPS
280
    0
  9
$JOINSTYLE
280
    0
  9
$LWDISPLAY
290
    0
  9
$INSUNITS
 70
    4
  9
$HYPERLINKBASE
  1

  9
$STYLESHEET
  1

  9
$XEDIT
290
    1
  9
$CEPSNTYPE
380
    0
  9
$PSTYLEMODE
290
    1
  9
$EXTNAMES
290
    1
  9
$PSVPSCALE
 40
0.5945945945945953
  9
$OLESTARTUP
290
    0
  9
$SORTENTS
280
  127
  9
$INDEXCTL
280
    0
  9
$HIDETEXT
280
    1
  9
$XCLIPFRAME
290
    0
  9
$HALOGAP
280
    0
  9
$OBSCOLOR
 70
  257
  9
$OBSLTYPE
280
    0
  9
$INTERSECTIONDISPLAY
280
    0
  9
$INTERSECTIONCOLOR
 70
  257
  9
$DIMASSOC
280
    1
  9
$PROJECTNAME
  1

  9
$CAMERADISPLAY
290
    0
  9
$LENSLENGTH
 40
50
  9
$CAMERAHEIGHT
 40
0
  9
$STEPSPERSEC
 40
2
  9
$STEPSIZE
 40
50
  9
$3DDWFPREC
 40
2
  9
$PSOLWIDTH
 40
5
  9
$PSOLHEIGHT
 40
80
  9
$LOFTANG1
 40
1.570796326794897
  9
$LOFTANG2
 40
1.570796326794897
  9
$LOFTMAG1
 40
0
  9
$LOFTMAG2
 40
0
  9
$LOFTPARAM
 70
    7
  9
$LOFTNORMALS
280
    1
  9
$LATITUDE
 40
1
  9
$LONGITUDE
 40
1
  9
$NORTHDIRECTION
 40
0
  9
$TIMEZONE
 70
-8000
  9
$LIGHTGLYPHDISPLAY
280
    1
  9
$TILEMODELIGHTSYNCH
280
    1
  9
$SOLIDHIST
280
    1
  9
$SHOWHIST
280
    1
  9
$DWFFRAME
280
    2
  9
$DGNFRAME
280
    0
  9
$REALWORLDSCALE
290
    1
  9
$INTERFERECOLOR
 62
    1
  9
$CSHADOW
280
    0
  9
$SHADOWPLANELOCATION
 40
0
  0
ENDSEC
  0
SECTION
  2
CLASSES
  0
ENDSEC
  0
SECTION
  2
TABLES
  0
TABLE
  2
VPORT
  5
8
330
0
100
AcDbSymbolTable
 70
    1
  0
VPORT
  5
31
330
2
100
AcDbSymbolTableRecord
100
AcDbViewportTableRecord
  2
*ACTIVE
 70
    0
 10
0
 20
0
 11
1
 21
1
 12
132.3877305768768
 22
90.90037080999154
 13
0
 23
0
 14
10
 24
10
 15
10
 25
10
 16
0
 26
0
 36
1
 17
0
 27
0
 37
0
 40
148.7282708624189
 41
1.697368421052632
 42
50
 43
0
 44
0
 50
0
 51
0
 71
    0
 72
  100
 73
    1
 74
    3
 75
    0
 76
    1
 77
    0
 78
    0
281
    0
 65
    1
110
0
120
0
130
0
111
1
121
0
131
0
112
0
122
1
132
0
 79
    0
146
0
348
10020
 60
    7
 61
    5
292
1
282
    1
141
0
142
0
 63
  250
421
3358443
  0
ENDTAB
  0
TABLE
  2
LTYPE
  5
5
330
0
100
AcDbSymbolTable
 70
    4
  0
LTYPE
  5
14
330
5
100
AcDbSymbolTableRecord
100
AcDbLinetypeTableRecord
  2
ByBlock
 70
    0
  3

 72
   65
 73
    0
 40
0
  0
LTYPE
  5
15
330
5
100
AcDbSymbolTableRecord
100
AcDbLinetypeTableRecord
  2
ByLayer
 70
    0
  3

 72
   65
 73
    0
 40
0
  0
LTYPE
  5
16
330
5
100
AcDbSymbolTableRecord
100
AcDbLinetypeTableRecord
  2
Continuous
 70
    0
  3
Solid line
 72
   65
 73
    0
 40
0
  0
LTYPE
  5
32
330
5
100
AcDbSymbolTableRecord
100
AcDbLinetypeTableRecord
  2
DOT
 70
    0
  3
Dot . . . . . . . . . . . . . . . . . . . . . .
 72
   65
 73
    2
 40
6.35
 49
0
 74
    0
 49
-6.35
 74
    0
  0
LTYPE
  5
33
330
5
100
AcDbSymbolTableRecord
100
AcDbLinetypeTableRecord
  2
DOTTINY
 70
    0
  3
Dot (.15x) .....................................
 72
   65
 73
    2
 40
0.9525
 49
0
 74
    0
 49
-0.9525
 74
    0
  0
LTYPE
  5
34
330
5
100
AcDbSymbolTableRecord
100
AcDbLinetypeTableRecord
  2
DOT2
 70
    0
  3
Dot (.5x) .....................................
 72
   65
 73
    2
 40
3.175
 49
0
 74
    0
 49
-3.175
 74
    0
  0
LTYPE
  5
35
330
5
100
AcDbSymbolTableRecord
100
AcDbLinetypeTableRecord
  2
DOTX2
 70
    0
  3
Dot (2x) .  .  .  .  .  .  .  .  .  .  .  .  .
 72
   65
 73
    2
 40
12.7
 49
0
 74
    0
 49
-12.7
 74
    0
  0
LTYPE
  5
36
330
5
100
AcDbSymbolTableRecord
100
AcDbLinetypeTableRecord
  2
DASHED
 70
    0
  3
Dashed _ _ _ _ _ _ _ _ _ _ _ _ _ _ _ _ _
 72
   65
 73
    2
 40
19.05
 49
12.7
 74
    0
 49
-6.35
 74
    0
  0
LTYPE
  5
37
330
5
100
AcDbSymbolTableRecord
100
AcDbLinetypeTableRecord
  2
DASHEDTINY
 70
    0
  3
Dashed (.15x) _ _ _ _ _ _ _ _ _ _ _ _ _ _ _ _ _
 72
   65
 73
    2
 40
2.8575
 49
1.905
 74
    0
 49
-0.9525
 74
    0
  0
LTYPE
  5
38
330
5
100
AcDbSymbolTableRecord
100
AcDbLinetypeTableRecord
  2
DASHED2
 70
    0
  3
Dashed (.5x) _ _ _ _ _ _ _ _ _ _ _ _ _ _ _ _ _
 72
   65
 73
    2
 40
9.524999999999999
 49
6.35
 74
    0
 49
-3.175
 74
    0
  0
LTYPE
  5
39
330
5
100
AcDbSymbolTableRecord
100
AcDbLinetypeTableRecord
  2
DASHEDX2
 70
    0
  3
Dashed (2x) ____  ____  ____  ____  ____  ___
 72
   65
 73
    2
 40
38.09999999999999
 49
25.4
 74
    0
 49
-12.7
 74
    0
  0
LTYPE
  5
3A
330
5
100
AcDbSymbolTableRecord
100
AcDbLinetypeTableRecord
  2
DASHDOT
 70
    0
  3
Dash dot __ . __ . __ . __ . __ . __ . __ . __
 72
   65
 73
    4
 40
25.4
 49
12.7
 74
    0
 49
-6.35
 74
    0
 49
0
 74
    0
 49
-6.35
 74
    0
  0
LTYPE
  5
3B
330
5
100
AcDbSymbolTableRecord
100
AcDbLinetypeTableRecord
  2
DASHDOTTINY
 70
    0
  3
Dash dot (.15x) _._._._._._._._._._._._._._._.
 72
   65
 73
    4
 40
3.81
 49
1.905
 74
    0
 49
-0.9525
 74
    0
 49
0
 74
    0
 49
-0.9525
 74
    0
  0
LTYPE
  5
3C
330
5
100
AcDbSymbolTableRecord
100
AcDbLinetypeTableRecord
  2
DASHDOT2
 70
    0
  3
Dash dot (.5x) _._._._._._._._._._._._._._._.
 72
   65
 73
    4
 40
12.7
 49
6.35
 74
    0
 49
-3.175
 74
    0
 49
0
 74
    0
 49
-3.175
 74
    0
  0
LTYPE
  5
3D
330
5
100
AcDbSymbolTableRecord
100
AcDbLinetypeTableRecord
  2
DASHDOTX2
 70
    0
  3
Dash dot (2x) ____  .  ____  .  ____  .  ___
 72
   65
 73
    4
 40
50.8
 49
25.4
 74
    0
 49
-12.7
 74
    0
 49
0
 74
    0
 49
-12.7
 74
    0
  0
LTYPE
  5
3E
330
5
100
AcDbSymbolTableRecord
100
AcDbLinetypeTableRecord
  2
DIVIDE
 70
    0
  3
Divide ____ . . ____ . . ____ . . ____ . . ____
 72
   65
 73
    6
 40
31.75
 49
12.7
 74
    0
 49
-6.35
 74
    0
 49
0
 74
    0
 49
-6.35
 74
    0
 49
0
 74
    0
 49
-6.35
 74
    0
  0
LTYPE
  5
3F
330
5
100
AcDbSymbolTableRecord
100
AcDbLinetypeTableRecord
  2
DIVIDETINY
 70
    0
  3
Divide (.15x) __..__..__..__..__..__..__..__.._
 72
   65
 73
    6
 40
4.7625
 49
1.905
 74
    0
 49
-0.9525
 74
    0
 49
0
 74
    0
 49
-0.9525
 74
    0
 49
0
 74
    0
 49
-0.9525
 74
    0
  0
LTYPE
  5
40
330
5
100
AcDbSymbolTableRecord
100
AcDbLinetypeTableRecord
  2
DIVIDE2
 70
    0
  3
Divide (.5x) __..__..__..__..__..__..__..__.._
 72
   65
 73
    6
 40
15.875
 49
6.35
 74
    0
 49
-3.175
 74
    0
 49
0
 74
    0
 49
-3.175
 74
    0
 49
0
 74
    0
 49
-3.175
 74
    0
  0
LTYPE
  5
41
330
5
100
AcDbSymbolTableRecord
100
AcDbLinetypeTableRecord
  2
DIVIDEX2
 70
    0
  3
Divide (2x) ________  .  .  ________  .  .  _
 72
   65
 73
    6
 40
63.5
 49
25.4
 74
    0
 49
-12.7
 74
    0
 49
0
 74
    0
 49
-12.7
 74
    0
 49
0
 74
    0
 49
-12.7
 74
    0
  0
LTYPE
  5
42
330
5
100
AcDbSymbolTableRecord
100
AcDbLinetypeTableRecord
  2
BORDER
 70
    0
  3
Border __ __ . __ __ . __ __ . __ __ . __ __ .
 72
   65
 73
    6
 40
44.45
 49
12.7
 74
    0
 49
-6.35
 74
    0
 49
12.7
 74
    0
 49
-6.35
 74
    0
 49
0
 74
    0
 49
-6.35
 74
    0
  0
LTYPE
  5
43
330
5
100
AcDbSymbolTableRecord
100
AcDbLinetypeTableRecord
  2
BORDERTINY
 70
    0
  3
Border (.15x) __.__.__.__.__.__.__.__.__.__.__.
 72
   65
 73
    6
 40
6.6675
 49
1.905
 74
    0
 49
-0.9525
 74
    0
 49
1.905
 74
    0
 49
-0.9525
 74
    0
 49
0
 74
    0
 49
-0.9525
 74
    0
  0
LTYPE
  5
44
330
5
100
AcDbSymbolTableRecord
100
AcDbLinetypeTableRecord
  2
BORDER2
 70
    0
  3
Border (.5x) __.__.__.__.__.__.__.__.__.__.__.
 72
   65
 73
    6
 40
22.225
 49
6.35
 74
    0
 49
-3.175
 74
    0
 49
6.35
 74
    0
 49
-3.175
 74
    0
 49
0
 74
    0
 49
-3.175
 74
    0
  0
LTYPE
  5
45
330
5
100
AcDbSymbolTableRecord
100
AcDbLinetypeTableRecord
  2
BORDERX2
 70
    0
  3
Border (2x) ____  ____  .  ____  ____  .  ___
 72
   65
 73
    6
 40
88.89999999999999
 49
25.4
 74
    0
 49
-12.7
 74
    0
 49
25.4
 74
    0
 49
-12.7
 74
    0
 49
0
 74
    0
 49
-12.7
 74
    0
  0
LTYPE
  5
46
330
5
100
AcDbSymbolTableRecord
100
AcDbLinetypeTableRecord
  2
CENTER
 70
    0
  3
Center ____ _ ____ _ ____ _ ____ _ ____ _ ____
 72
   65
 73
    4
 40
50.8
 49
31.75
 74
    0
 49
-6.35
 74
    0
 49
6.35
 74
    0
 49
-6.35
 74
    0
  0
LTYPE
  5
47
330
5
100
AcDbSymbolTableRecord
100
AcDbLinetypeTableRecord
  2
CENTERTINY
 70
    0
  3
Center (.15x) ___ _ ___ _ ___ _ ___ _ ___ _ ___
 72
   65
 73
    4
 40
7.619999999999999
 49
4.7625
 74
    0
 49
-0.9525
 74
    0
 49
0.9525
 74
    0
 49
-0.9525
 74
    0
  0
LTYPE
  5
48
330
5
100
AcDbSymbolTableRecord
100
AcDbLinetypeTableRecord
  2
CENTER2
 70
    0
  3
Center (.5x) ___ _ ___ _ ___ _ ___ _ ___ _ ___
 72
   65
 73
    4
 40
28.575
 49
19.05
 74
    0
 49
-3.175
 74
    0
 49
3.175
 74
    0
 49
-3.175
 74
    0
  0
LTYPE
  5
49
330
5
100
AcDbSymbolTableRecord
100
AcDbLinetypeTableRecord
  2
CENTERX2
 70
    0
  3
Center (2x) ________  __  ________  __  _____
 72
   65
 73
    4
 40
101.6
 49
63.5
 74
    0
 49
-12.7
 74
    0
 49
12.7
 74
    0
 49
-12.7
 74
    0
  0
ENDTAB
  0
TABLE
  2
LAYER
  5
2
330
0
100
AcDbSymbolTable
 70
    1
  0
LAYER
  5
10
330
2
100
AcDbSymbolTableRecord
100
AcDbLayerTableRecord
  2
0
 70
    0
 62
    7
  6
CONTINUOUS
370
   40
390
F
  0
LAYER
  5
4A
330
2
100
AcDbSymbolTableRecord
100
AcDbLayerTableRecord
  2
EDGE
 70
    0
 62
    3
  6
CONTINUOUS
370
   50
390
F
  0
LAYER
  5
4B
330
2
100
AcDbSymbolTableRecord
100
AcDbLayerTableRecord
  2
Other
 70
    0
 62
    6
  6
CONTINUOUS
370
    0
390
F
  0
LAYER
  5
4C
330
2
100
AcDbSymbolTableRecord
100
AcDbLayerTableRecord
  2
construction
 70
    0
 62
    2
  6
CONTINUOUS
370
    0
390
F
1001
LibreCad
1070
    1
  0
ENDTAB
  0
TABLE
  2
STYLE
  5
3
330
0
100
AcDbSymbolTable
 70
    3
  0
STYLE
  5
4D
330
2
100
AcDbSymbolTableRecord
100
AcDbTextStyleTableRecord
  2
standard
 70
    0
 40
0
 41
1
 50
0
 71
    0
 42
1
  3
standard
  4

  0
ENDTAB
  0
TABLE
  2
VIEW
  5
6
330
0
100
AcDbSymbolTable
 70
    0
  0
ENDTAB
  0
TABLE
  2
UCS
  5
7
330
0
100
AcDbSymbolTable
 70
    0
  0
ENDTAB
  0
TABLE
  2
APPID
  5
9
330
0
100
AcDbSymbolTable
 70
    1
  0
APPID
  5
12
330
9
100
AcDbSymbolTableRecord
100
AcDbRegAppTableRecord
  2
ACAD
 70
    0
  0
APPID
  5
4E
330
9
100
AcDbSymbolTableRecord
100
AcDbRegAppTableRecord
  2
LibreCad
 70
    0
  0
ENDTAB
  0
TABLE
  2
DIMSTYLE
  5
A
330
0
100
AcDbSymbolTable
 70
    1
100
AcDbDimStyleTable
 71
    1
  0
DIMSTYLE
105
4F
330
A
100
AcDbSymbolTableRecord
100
AcDbDimStyleTableRecord
  2
Standard
 70
    0
 40
2.5
 41
2.5
 42
0.625
 43
0.38
 44
1.25
 45
0
 46
0
 47
0
 48
0
 49
1
140
2.5
141
0.09
142
0
143
25.4
144
1
145
0
146
1
147
0.625
148
0
 71
    0
 72
    0
 73
    0
 74
    1
 75
    0
 76
    0
 77
    0
 78
    8
 79
    0
170
    0
171
    2
172
    0
173
    0
174
    0
175
    0
176
    0
177
    0
178
    0
179
    0
271
    2
272
    4
273
    2
274
    2
275
    0
276
    0
277
    2
278
   44
279
    0
280
    0
281
    0
282
    0
283
    1
284
    0
285
    0
286
    0
288
    0
289
    3
340
4D
  0
ENDTAB
  0
TABLE
  2
BLOCK_RECORD
  5
1
330
0
100
AcDbSymbolTable
 70
    2
  0
BLOCK_RECORD
  5
1F
330
1
100
AcDbSymbolTableRecord
100
AcDbBlockTableRecord
  2
*Model_Space
 70
    0
280
    1
281
    0
  0
BLOCK_RECORD
  5
1E
330
1
100
AcDbSymbolTableRecord
100
AcDbBlockTableRecord
  2
*Paper_Space
 70
    0
280
    1
281
    0
  0
ENDTAB
  0
ENDSEC
  0
SECTION
  2
BLOCKS
  0
BLOCK
  5
20
330
1F
100
AcDbEntity
  8
0
100
AcDbBlockBegin
  2
*Model_Space
 70
    0
 10
0
 20
0
 30
0
  3
*Model_Space
  1

  0
ENDBLK
  5
21
330
1F
100
AcDbEntity
  8
0
100
AcDbBlockEnd
  0
BLOCK
  5
1C
330
1B
100
AcDbEntity
  8
0
100
AcDbBlockBegin
  2
*Paper_Space
 70
    0
 10
0
 20
0
 30
0
  3
*Paper_Space
  1

  0
ENDBLK
  5
1D
330
1F
100
AcDbEntity
  8
0
100
AcDbBlockEnd
  0
ENDSEC
  0
SECTION
  2
ENTITIES
  0
MTEXT
  5
50
100
AcDbEntity
  8
0
  6
ByLayer
 62
  256
370
   -1
100
AcDbMText
 10
105
 20
142.0739319763142
 30
0
 40
1
 41
0
 71
    1
 72
    1
  1

  7
standard
210
0
220
0
230
1
 50
0
 73
    2
 44
1
  0
MTEXT
  5
51
100
AcDbEntity
  8
0
  6
ByLayer
 62
  256
370
   -1
100
AcDbMText
 10
107
 20
139.0739319763142
 30
0
 40
1
 41
0
 71
    1
 72
    1
  1

  7
standard
210
0
220
0
230
1
 50
0
 73
    2
 44
1
  0
MTEXT
  5
52
100
AcDbEntity
  8
0
  6
ByLayer
 62
  256
370
   -1
100
AcDbMText
 10
107
 20
140.0739319763142
 30
0
 40
1
 41
0
 71
    1
 72
    1
  1

  7
standard
210
0
220
0
230
1
 50
0
 73
    2
 44
1
  0
MTEXT
  5
53
100
AcDbEntity
  8
0
  6
ByLayer
 62
  256
370
   -1
100
AcDbMText
 10
95
 20
109.0739319763142
 30
0
 40
1
 41
0
 71
    1
 72
    1
  1

  7
standard
210
0
220
0
230
1
 50
0
 73
    2
 44
1
  0
LINE
  5
54
100
AcDbEntity
  8
construction
  6
ByLayer
 62
  256
370
   -1
100
AcDbLine
 10
-49.24999999999993
 20
76
 11
-49.24999999999993
 21
75
  0
LINE
  5
55
100
AcDbEntity
  8
0
  6
ByLayer
 62
  256
370
   -1
100
AcDbLine
 10
-43.74999999999993
 20
106.75
 11
-43.74999999999993
 21
85.75
  0
LINE
  5
56
100
AcDbEntity
  8
0
  6
ByLayer
 62
  256
370
   -1
100
AcDbLine
 10
-43.74999999999993
 20
106.75
 11
-54.74999999999993
 21
106.75
  0
LINE
  5
57
100
AcDbEntity
  8
0
  6
ByLayer
 62
  256
370
   -1
100
AcDbLine
 10
-43.74999999999993
 20
85.75
 11
-54.74999999999993
 21
85.75
  0
LINE
  5
58
100
AcDbEntity
  8
0
  6
ByLayer
 62
  256
370
   -1
100
AcDbLine
 10
-54.74999999999993
 20
85.75
 11
-54.74999999999993
 21
106.75
  0
LINE
  5
59
100
AcDbEntity
  8
0
  6
ByLayer
 62
  256
370
   -1
100
AcDbLine
 10
-54.74999999999993
 20
106.75
 11
-43.74999999999993
 21
85.75
  0
LINE
  5
5A
100
AcDbEntity
  8
0
  6
ByLayer
 62
  256
370
   -1
100
AcDbLine
 10
-43.74999999999993
 20
85.75
 11
-43.74999999999993
 21
106.75
  0
LINE
  5
5B
100
AcDbEntity
  8
0
  6
ByLayer
 62
  256
370
   -1
100
AcDbLine
 10
-43.74999999999993
 20
106.75
 11
-54.74999999999993
 21
85.75
  0
LINE
  5
5C
100
AcDbEntity
  8
0
  6
ByLayer
 62
  256
370
   -1
100
AcDbLine
 10
-69.24999999999993
 20
85.75
 11
-69.24999999999993
 21
106.75
  0
LINE
  5
5D
100
AcDbEntity
  8
0
  6
ByLayer
 62
  256
370
   -1
100
AcDbLine
 10
-29.24999999999993
 20
85.75
 11
-29.24999999999993
 21
106.75
  0
LINE
  5
5E
100
AcDbEntity
  8
0
  6
ByLayer
 62
  256
370
   -1
100
AcDbLine
 10
-69.24999999999993
 20
85.75
 11
-29.24999999999993
 21
85.75
  0
LINE
  5
5F
100
AcDbEntity
  8
0
  6
ByLayer
 62
  256
370
   -1
100
AcDbLine
 10
-69.24999999999993
 20
90.25
 11
-29.24999999999993
 21
90.25
  0
LINE
  5
60
100
AcDbEntity
  8
0
  6
ByLayer
 62
  256
370
   -1
100
AcDbLine
 10
-29.24999999999993
 20
106.75
 11
-69.24999999999993
 21
106.75
  0
LINE
  5
61
100
AcDbEntity
  8
0
  6
ByLayer
 62
  256
370
   -1
100
AcDbLine
 10
-29.24999999999993
 20
102.25
 11
-69.24999999999993
 21
102.25
  0
LINE
  5
62
100
AcDbEntity
  8
0
  6
ByLayer
 62
  256
370
   -1
100
AcDbLine
 10
-60.74999999999993
 20
102.25
 11
-60.74999999999993
 21
90.25
  0
LINE
  5
63
100
AcDbEntity
  8
0
  6
ByLayer
 62
  256
370
   -1
100
AcDbLine
 10
-35.24999999999993
 20
90.25
 11
-35.24999999999993
 21
102.25
  0
LINE
  5
64
100
AcDbEntity
  8
construction
  6
ByLayer
 62
  256
370
   -1
100
AcDbLine
 10
142.2500000000003
 20
46
 11
142.2500000000003
 21
45
  0
LINE
  5
65
100
AcDbEntity
  8
construction
  6
ByLayer
 62
  256
370
   -1
100
AcDbLine
 10
70.75
 20
46
 11
70.75
 21
45
  0
LINE
  5
66
100
AcDbEntity
  8
construction
  6
ByLayer
 62
  256
370
   -1
100
AcDbLine
 10
-8.24999999999994
 20
71
 11
-8.24999999999994
 21
58.75
  0
LINE
  5
67
100
AcDbEntity
  8
construction
  6
ByLayer
 62
  256
370
   -1
100
AcDbLine
 10
-8.24999999999994
 20
71
 11
10.25000000000006
 21
71
  0
LINE
  5
68
100
AcDbEntity
  8
0
  6
ByLayer
 62
  256
370
   -1
100
AcDbLine
 10
85
 20
62
 11
103
 21
62
  0
LINE
  5
69
100
AcDbEntity
  8
0
  6
ByLayer
 62
  256
370
   -1
100
AcDbLine
 10
85
 20
62
 11
85
 21
80
  0
LINE
  5
6A
100
AcDbEntity
  8
0
  6
ByLayer
 62
  256
370
   -1
100
AcDbLine
 10
103
 20
62
 11
103
 21
80
  0
LINE
  5
6B
100
AcDbEntity
  8
0
  6
ByLayer
 62
  256
370
   -1
100
AcDbLine
 10
85
 20
80
 11
103
 21
80
  0
LINE
  5
6C
100
AcDbEntity
  8
0
  6
ByLayer
 62
  256
370
   -1
100
AcDbLine
 10
109
 20
62
 11
127
 21
62
  0
LINE
  5
6D
100
AcDbEntity
  8
0
  6
ByLayer
 62
  256
370
   -1
100
AcDbLine
 10
109
 20
62
 11
109
 21
80
  0
LINE
  5
6E
100
AcDbEntity
  8
0
  6
ByLayer
 62
  256
370
   -1
100
AcDbLine
 10
127
 20
62
 11
127
 21
80
  0
LINE
  5
6F
100
AcDbEntity
  8
0
  6
ByLayer
 62
  256
370
   -1
100
AcDbLine
 10
109
 20
80
 11
127
 21
80
  0
CIRCLE
  5
70
100
AcDbEntity
  8
0
  6
ByLayer
 62
  256
370
   -1
100
AcDbCircle
 10
70.75
 20
71
 40
4
  0
CIRCLE
  5
71
100
AcDbEntity
  8
0
  6
ByLayer
 62
  256
370
   -1
100
AcDbCircle
 10
142.2500000000003
 20
71
 40
4
  0
CIRCLE
  5
72
100
AcDbEntity
  8
0
  6
ByLayer
 62
  256
370
   -1
100
AcDbCircle
 10
183.2500000000002
 20
71
 40
4
  0
CIRCLE
  5
73
100
AcDbEntity
  8
0
  6
ByLayer
 62
  256
370
   -1
100
AcDbCircle
 10
29.75
 20
71
 40
4
  0
CIRCLE
  5
74
100
AcDbEntity
  8
0
  6
ByLayer
 62
  256
370
   -1
100
AcDbCircle
 10
50.24999999999994
 20
81
 40
9.5
  0
LINE
  5
75
100
AcDbEntity
  8
0
  6
ByLayer
 62
  256
370
   -1
100
AcDbLine
 10
109
 20
80
 11
127
 21
62
  0
LINE
  5
76
100
AcDbEntity
  8
0
  6
ByLayer
 62
  256
370
   -1
100
AcDbLine
 10
127
 20
80
 11
109
 21
62
  0
LINE
  5
77
100
AcDbEntity
  8
0
  6
ByLayer
 62
  256
370
   -1
100
AcDbLine
 10
85
 20
80
 11
103
 21
62
  0
LINE
  5
78
100
AcDbEntity
  8
0
  6
ByLayer
 62
  256
370
   -1
100
AcDbLine
 10
103
 20
80
 11
85
 21
62
  0
LINE
  5
79
100
AcDbEntity
  8
construction
  6
ByLayer
 62
  256
370
   -1
100
AcDbLine
 10
85
 20
47
 11
103
 21
47
  0
LINE
  5
7A
100
AcDbEntity
  8
0
  6
ByLayer
 62
  256
370
   -1
100
AcDbLine
 10
97
 20
38
 11
115
 21
38
  0
LINE
  5
7B
100
AcDbEntity
  8
0
  6
ByLayer
 62
  256
370
   -1
100
AcDbLine
 10
97
 20
38
 11
97
 21
56
  0
LINE
  5
7C
100
AcDbEntity
  8
0
  6
ByLayer
 62
  256
370
   -1
100
AcDbLine
 10
115
 20
38
 11
115
 21
56
  0
LINE
  5
7D
100
AcDbEntity
  8
0
  6
ByLayer
 62
  256
370
   -1
100
AcDbLine
 10
97
 20
56
 11
115
 21
56
  0
LINE
  5
7E
100
AcDbEntity
  8
0
  6
ByLayer
 62
  256
370
   -1
100
AcDbLine
 10
133.2500000000003
 20
38
 11
151.2500000000003
 21
38
  0
LINE
  5
7F
100
AcDbEntity
  8
0
  6
ByLayer
 62
  256
370
   -1
100
AcDbLine
 10
133.2500000000003
 20
38
 11
133.2500000000003
 21
56
  0
LINE
  5
80
100
AcDbEntity
  8
0
  6
ByLayer
 62
  256
370
   -1
100
AcDbLine
 10
151.2500000000003
 20
38
 11
151.2500000000003
 21
56
  0
LINE
  5
81
100
AcDbEntity
  8
0
  6
ByLayer
 62
  256
370
   -1
100
AcDbLine
 10
133.2500000000003
 20
56
 11
151.2500000000003
 21
56
  0
LINE
  5
82
100
AcDbEntity
  8
0
  6
ByLayer
 62
  256
370
   -1
100
AcDbLine
 10
174.2500000000002
 20
38
 11
192.2500000000002
 21
38
  0
LINE
  5
83
100
AcDbEntity
  8
0
  6
ByLayer
 62
  256
370
   -1
100
AcDbLine
 10
174.2500000000002
 20
38
 11
174.2500000000002
 21
56
  0
LINE
  5
84
100
AcDbEntity
  8
0
  6
ByLayer
 62
  256
370
   -1
100
AcDbLine
 10
192.2500000000002
 20
38
 11
192.2500000000002
 21
56
  0
LINE
  5
85
100
AcDbEntity
  8
0
  6
ByLayer
 62
  256
370
   -1
100
AcDbLine
 10
174.2500000000002
 20
56
 11
192.2500000000002
 21
56
  0
LINE
  5
86
100
AcDbEntity
  8
0
  6
ByLayer
 62
  256
370
   -1
100
AcDbLine
 10
61.75
 20
38
 11
79.75
 21
38
  0
LINE
  5
87
100
AcDbEntity
  8
0
  6
ByLayer
 62
  256
370
   -1
100
AcDbLine
 10
61.75
 20
38
 11
61.75
 21
56
  0
LINE
  5
88
100
AcDbEntity
  8
0
  6
ByLayer
 62
  256
370
   -1
100
AcDbLine
 10
79.75
 20
38
 11
79.75
 21
56
  0
LINE
  5
89
100
AcDbEntity
  8
0
  6
ByLayer
 62
  256
370
   -1
100
AcDbLine
 10
61.75
 20
56
 11
79.75
 21
56
  0
LINE
  5
8A
100
AcDbEntity
  8
0
  6
ByLayer
 62
  256
370
   -1
100
AcDbLine
 10
97
 20
56
 11
115
 21
38
  0
LINE
  5
8B
100
AcDbEntity
  8
0
  6
ByLayer
 62
  256
370
   -1
100
AcDbLine
 10
115
 20
56
 11
97
 21
38
  0
LINE
  5
8C
100
AcDbEntity
  8
0
  6
ByLayer
 62
  256
370
   -1
100
AcDbLine
 10
133.2500000000003
 20
56
 11
151.2500000000003
 21
38
  0
LINE
  5
8D
100
AcDbEntity
  8
0
  6
ByLayer
 62
  256
370
   -1
100
AcDbLine
 10
151.2500000000003
 20
56
 11
133.2500000000003
 21
38
  0
LINE
  5
8E
100
AcDbEntity
  8
0
  6
ByLayer
 62
  256
370
   -1
100
AcDbLine
 10
174.2500000000002
 20
56
 11
192.2500000000002
 21
38
  0
LINE
  5
8F
100
AcDbEntity
  8
0
  6
ByLayer
 62
  256
370
   -1
100
AcDbLine
 10
192.2500000000002
 20
56
 11
174.2500000000002
 21
38
  0
LINE
  5
90
100
AcDbEntity
  8
0
  6
ByLayer
 62
  256
370
   -1
100
AcDbLine
 10
61.75
 20
56
 11
79.75
 21
38
  0
LINE
  5
91
100
AcDbEntity
  8
0
  6
ByLayer
 62
  256
370
   -1
100
AcDbLine
 10
79.75
 20
56
 11
61.75
 21
38
  0
LINE
  5
92
100
AcDbEntity
  8
0
  6
ByLayer
 62
  256
370
   -1
100
AcDbLine
 10
180.7499999999994
 20
33
 11
180.7499999999994
 21
12
  0
LINE
  5
93
100
AcDbEntity
  8
0
  6
ByLayer
 62
  256
370
   -1
100
AcDbLine
 10
180.7499999999994
 20
33
 11
169.7499999999994
 21
33
  0
LINE
  5
94
100
AcDbEntity
  8
0
  6
ByLayer
 62
  256
370
   -1
100
AcDbLine
 10
180.7499999999994
 20
12
 11
169.7499999999994
 21
12
  0
LINE
  5
95
100
AcDbEntity
  8
0
  6
ByLayer
 62
  256
370
   -1
100
AcDbLine
 10
169.7499999999994
 20
12
 11
169.7499999999994
 21
33
  0
LINE
  5
96
100
AcDbEntity
  8
0
  6
ByLayer
 62
  256
370
   -1
100
AcDbLine
 10
169.7499999999994
 20
33
 11
180.7499999999994
 21
12
  0
LINE
  5
97
100
AcDbEntity
  8
0
  6
ByLayer
 62
  256
370
   -1
100
AcDbLine
 10
180.7499999999994
 20
12
 11
180.7499999999994
 21
33
  0
LINE
  5
98
100
AcDbEntity
  8
0
  6
ByLayer
 62
  256
370
   -1
100
AcDbLine
 10
180.7499999999994
 20
33
 11
169.7499999999994
 21
12
  0
LINE
  5
99
100
AcDbEntity
  8
0
  6
ByLayer
 62
  256
370
   -1
100
AcDbLine
 10
155.2499999999994
 20
12
 11
155.2499999999994
 21
33
  0
LINE
  5
9A
100
AcDbEntity
  8
0
  6
ByLayer
 62
  256
370
   -1
100
AcDbLine
 10
195.2499999999994
 20
12
 11
195.2499999999994
 21
33
  0
LINE
  5
9B
100
AcDbEntity
  8
0
  6
ByLayer
 62
  256
370
   -1
100
AcDbLine
 10
155.2499999999994
 20
12
 11
195.2499999999994
 21
12
  0
LINE
  5
9C
100
AcDbEntity
  8
0
  6
ByLayer
 62
  256
370
   -1
100
AcDbLine
 10
155.2499999999994
 20
16.5
 11
195.2499999999994
 21
16.5
  0
LINE
  5
9D
100
AcDbEntity
  8
0
  6
ByLayer
 62
  256
370
   -1
100
AcDbLine
 10
195.2499999999994
 20
33
 11
155.2499999999994
 21
33
  0
LINE
  5
9E
100
AcDbEntity
  8
0
  6
ByLayer
 62
  256
370
   -1
100
AcDbLine
 10
195.2499999999994
 20
28.5
 11
155.2499999999994
 21
28.5
  0
LINE
  5
9F
100
AcDbEntity
  8
0
  6
ByLayer
 62
  256
370
   -1
100
AcDbLine
 10
163.7499999999994
 20
28.5
 11
163.7499999999994
 21
16.5
  0
LINE
  5
A0
100
AcDbEntity
  8
0
  6
ByLayer
 62
  256
370
   -1
100
AcDbLine
 10
189.2499999999994
 20
16.5
 11
189.2499999999994
 21
28.5
  0
LINE
  5
A1
100
AcDbEntity
  8
0
  6
ByLayer
 62
  256
370
   -1
100
AcDbLine
 10
90.75
 20
12
 11
90.75
 21
33
  0
LINE
  5
A2
100
AcDbEntity
  8
0
  6
ByLayer
 62
  256
370
   -1
100
AcDbLine
 10
76.25
 20
33
 11
76.25
 21
12
  0
LINE
  5
A3
100
AcDbEntity
  8
0
  6
ByLayer
 62
  256
370
   -1
100
AcDbLine
 10
76.25
 20
33
 11
65.25
 21
33
  0
LINE
  5
A4
100
AcDbEntity
  8
0
  6
ByLayer
 62
  256
370
   -1
100
AcDbLine
 10
76.25
 20
12
 11
65.25
 21
12
  0
LINE
  5
A5
100
AcDbEntity
  8
0
  6
ByLayer
 62
  256
370
   -1
100
AcDbLine
 10
65.25
 20
12
 11
65.25
 21
33
  0
LINE
  5
A6
100
AcDbEntity
  8
0
  6
ByLayer
 62
  256
370
   -1
100
AcDbLine
 10
65.25
 20
33
 11
76.25
 21
12
  0
LINE
  5
A7
100
AcDbEntity
  8
0
  6
ByLayer
 62
  256
370
   -1
100
AcDbLine
 10
76.25
 20
12
 11
76.25
 21
33
  0
LINE
  5
A8
100
AcDbEntity
  8
0
  6
ByLayer
 62
  256
370
   -1
100
AcDbLine
 10
76.25
 20
33
 11
65.25
 21
12
  0
LINE
  5
A9
100
AcDbEntity
  8
0
  6
ByLayer
 62
  256
370
   -1
100
AcDbLine
 10
50.75000000000001
 20
12
 11
50.75000000000001
 21
33
  0
LINE
  5
AA
100
AcDbEntity
  8
0
  6
ByLayer
 62
  256
370
   -1
100
AcDbLine
 10
90.75
 20
12
 11
90.75
 21
33
  0
LINE
  5
AB
100
AcDbEntity
  8
0
  6
ByLayer
 62
  256
370
   -1
100
AcDbLine
 10
50.75000000000001
 20
12
 11
90.75
 21
12
  0
LINE
  5
AC
100
AcDbEntity
  8
0
  6
ByLayer
 62
  256
370
   -1
100
AcDbLine
 10
50.75000000000001
 20
16.5
 11
90.75
 21
16.5
  0
LINE
  5
AD
100
AcDbEntity
  8
0
  6
ByLayer
 62
  256
370
   -1
100
AcDbLine
 10
90.75
 20
33
 11
50.75000000000001
 21
33
  0
LINE
  5
AE
100
AcDbEntity
  8
0
  6
ByLayer
 62
  256
370
   -1
100
AcDbLine
 10
90.75
 20
28.5
 11
50.75000000000001
 21
28.5
  0
LINE
  5
AF
100
AcDbEntity
  8
0
  6
ByLayer
 62
  256
370
   -1
100
AcDbLine
 10
59.25000000000001
 20
28.5
 11
59.25000000000001
 21
16.5
  0
LINE
  5
B0
100
AcDbEntity
  8
0
  6
ByLayer
 62
  256
370
   -1
100
AcDbLine
 10
84.75
 20
16.5
 11
84.75
 21
28.5
  0
LINE
  5
B1
100
AcDbEntity
  8
0
  6
ByLayer
 62
  256
370
   -1
100
AcDbLine
 10
142.9999999999994
 20
12
 11
142.9999999999994
 21
33
  0
LINE
  5
B2
100
AcDbEntity
  8
0
  6
ByLayer
 62
  256
370
   -1
100
AcDbLine
 10
142.9999999999994
 20
12
 11
142.9999999999994
 21
33
  0
LINE
  5
B3
100
AcDbEntity
  8
0
  6
ByLayer
 62
  256
370
   -1
100
AcDbLine
 10
128.4999999999994
 20
33
 11
128.4999999999994
 21
12
  0
LINE
  5
B4
100
AcDbEntity
  8
0
  6
ByLayer
 62
  256
370
   -1
100
AcDbLine
 10
128.4999999999994
 20
33
 11
117.4999999999994
 21
33
  0
LINE
  5
B5
100
AcDbEntity
  8
0
  6
ByLayer
 62
  256
370
   -1
100
AcDbLine
 10
128.4999999999994
 20
12
 11
117.4999999999994
 21
12
  0
LINE
  5
B6
100
AcDbEntity
  8
0
  6
ByLayer
 62
  256
370
   -1
100
AcDbLine
 10
117.4999999999994
 20
12
 11
117.4999999999994
 21
33
  0
LINE
  5
B7
100
AcDbEntity
  8
0
  6
ByLayer
 62
  256
370
   -1
100
AcDbLine
 10
117.4999999999994
 20
33
 11
128.4999999999994
 21
12
  0
LINE
  5
B8
100
AcDbEntity
  8
0
  6
ByLayer
 62
  256
370
   -1
100
AcDbLine
 10
128.4999999999994
 20
12
 11
128.4999999999994
 21
33
  0
LINE
  5
B9
100
AcDbEntity
  8
0
  6
ByLayer
 62
  256
370
   -1
100
AcDbLine
 10
128.4999999999994
 20
33
 11
117.4999999999994
 21
12
  0
LINE
  5
BA
100
AcDbEntity
  8
0
  6
ByLayer
 62
  256
370
   -1
100
AcDbLine
 10
102.9999999999994
 20
12
 11
102.9999999999994
 21
33
  0
LINE
  5
BB
100
AcDbEntity
  8
0
  6
ByLayer
 62
  256
370
   -1
100
AcDbLine
 10
102.9999999999994
 20
12
 11
142.9999999999994
 21
12
  0
LINE
  5
BC
100
AcDbEntity
  8
0
  6
ByLayer
 62
  256
370
   -1
100
AcDbLine
 10
102.9999999999994
 20
16.5
 11
142.9999999999994
 21
16.5
  0
LINE
  5
BD
100
AcDbEntity
  8
0
  6
ByLayer
 62
  256
370
   -1
100
AcDbLine
 10
142.9999999999994
 20
33
 11
102.9999999999994
 21
33
  0
LINE
  5
BE
100
AcDbEntity
  8
0
  6
ByLayer
 62
  256
370
   -1
100
AcDbLine
 10
142.9999999999994
 20
28.5
 11
102.9999999999994
 21
28.5
  0
LINE
  5
BF
100
AcDbEntity
  8
0
  6
ByLayer
 62
  256
370
   -1
100
AcDbLine
 10
111.4999999999994
 20
28.5
 11
111.4999999999994
 21
16.5
  0
LINE
  5
C0
100
AcDbEntity
  8
0
  6
ByLayer
 62
  256
370
   -1
100
AcDbLine
 10
136.9999999999994
 20
16.5
 11
136.9999999999994
 21
28.5
  0
LINE
  5
C1
100
AcDbEntity
  8
construction
  6
ByLayer
 62
  256
370
   -1
100
AcDbLine
 10
106
 20
47
 11
106
 21
65.5
  0
CIRCLE
  5
C2
100
AcDbEntity
  8
0
  6
ByLayer
 62
  256
370
   -1
100
AcDbCircle
 10
-49.24999999999993
 20
71
 40
4
  0
LINE
  5
C3
100
AcDbEntity
  8
construction
  6
ByLayer
 62
  256
370
   -1
100
AcDbLine
 10
-37.24999999999993
 20
76
 11
-37.24999999999993
 21
75
  0
LINE
  5
C4
100
AcDbEntity
  8
construction
  6
ByLayer
 62
  256
370
   -1
100
AcDbLine
 10
-61.24999999999993
 20
75
 11
-61.24999999999993
 21
93.5
  0
LINE
  5
C5
100
AcDbEntity
  8
0
  6
ByLayer
 62
  256
370
   -1
100
AcDbLine
 10
-70.24999999999993
 20
37.99999999999999
 11
-52.24999999999993
 21
37.99999999999999
  0
LINE
  5
C6
100
AcDbEntity
  8
0
  6
ByLayer
 62
  256
370
   -1
100
AcDbLine
 10
-70.24999999999993
 20
37.99999999999999
 11
-70.24999999999993
 21
56
  0
LINE
  5
C7
100
AcDbEntity
  8
0
  6
ByLayer
 62
  256
370
   -1
100
AcDbLine
 10
-52.24999999999993
 20
37.99999999999999
 11
-52.24999999999993
 21
56
  0
LINE
  5
C8
100
AcDbEntity
  8
0
  6
ByLayer
 62
  256
370
   -1
100
AcDbLine
 10
-70.24999999999993
 20
56
 11
-52.24999999999993
 21
56
  0
LINE
  5
C9
100
AcDbEntity
  8
0
  6
ByLayer
 62
  256
370
   -1
100
AcDbLine
 10
-70.24999999999993
 20
56
 11
-52.24999999999993
 21
37.99999999999999
  0
LINE
  5
CA
100
AcDbEntity
  8
0
  6
ByLayer
 62
  256
370
   -1
100
AcDbLine
 10
-52.24999999999993
 20
56
 11
-70.24999999999993
 21
37.99999999999999
  0
LINE
  5
CB
100
AcDbEntity
  8
0
  6
ByLayer
 62
  256
370
   -1
100
AcDbLine
 10
-46.24999999999993
 20
37.99999999999999
 11
-28.24999999999994
 21
37.99999999999999
  0
LINE
  5
CC
100
AcDbEntity
  8
0
  6
ByLayer
 62
  256
370
   -1
100
AcDbLine
 10
-46.24999999999993
 20
37.99999999999999
 11
-46.24999999999993
 21
56
  0
LINE
  5
CD
100
AcDbEntity
  8
0
  6
ByLayer
 62
  256
370
   -1
100
AcDbLine
 10
-28.24999999999994
 20
37.99999999999999
 11
-28.24999999999994
 21
56
  0
LINE
  5
CE
100
AcDbEntity
  8
0
  6
ByLayer
 62
  256
370
   -1
100
AcDbLine
 10
-46.24999999999993
 20
56
 11
-28.24999999999994
 21
56
  0
LINE
  5
CF
100
AcDbEntity
  8
0
  6
ByLayer
 62
  256
370
   -1
100
AcDbLine
 10
-46.24999999999993
 20
56
 11
-28.24999999999993
 21
37.99999999999999
  0
LINE
  5
D0
100
AcDbEntity
  8
0
  6
ByLayer
 62
  256
370
   -1
100
AcDbLine
 10
-28.24999999999993
 20
56
 11
-46.24999999999993
 21
37.99999999999999
  0
LINE
  5
D1
100
AcDbEntity
  8
0
  6
ByLayer
 62
  256
370
   -1
100
AcDbLine
 10
-94.24999999999994
 20
37.99999999999999
 11
-76.24999999999996
 21
37.99999999999999
  0
LINE
  5
D2
100
AcDbEntity
  8
0
  6
ByLayer
 62
  256
370
   -1
100
AcDbLine
 10
-94.24999999999994
 20
37.99999999999999
 11
-94.24999999999994
 21
56
  0
LINE
  5
D3
100
AcDbEntity
  8
0
  6
ByLayer
 62
  256
370
   -1
100
AcDbLine
 10
-76.24999999999996
 20
37.99999999999999
 11
-76.24999999999996
 21
56
  0
LINE
  5
D4
100
AcDbEntity
  8
0
  6
ByLayer
 62
  256
370
   -1
100
AcDbLine
 10
-94.24999999999994
 20
56
 11
-76.24999999999996
 21
56
  0
LINE
  5
D5
100
AcDbEntity
  8
0
  6
ByLayer
 62
  256
370
   -1
100
AcDbLine
 10
-94.24999999999994
 20
56
 11
-76.24999999999994
 21
37.99999999999999
  0
LINE
  5
D6
100
AcDbEntity
  8
0
  6
ByLayer
 62
  256
370
   -1
100
AcDbLine
 10
-76.24999999999994
 20
56
 11
-94.24999999999994
 21
37.99999999999999
  0
LINE
  5
D7
100
AcDbEntity
  8
0
  6
ByLayer
 62
  256
370
   -1
100
AcDbLine
 10
-118.25
 20
38.00000000000001
 11
-100.25
 21
38.00000000000001
  0
LINE
  5
D8
100
AcDbEntity
  8
0
  6
ByLayer
 62
  256
370
   -1
100
AcDbLine
 10
-118.25
 20
38.00000000000001
 11
-118.25
 21
56.00000000000001
  0
LINE
  5
D9
100
AcDbEntity
  8
0
  6
ByLayer
 62
  256
370
   -1
100
AcDbLine
 10
-100.25
 20
38.00000000000001
 11
-100.25
 21
56.00000000000001
  0
LINE
  5
DA
100
AcDbEntity
  8
0
  6
ByLayer
 62
  256
370
   -1
100
AcDbLine
 10
-118.25
 20
56.00000000000001
 11
-100.25
 21
56.00000000000001
  0
LINE
  5
DB
100
AcDbEntity
  8
0
  6
ByLayer
 62
  256
370
   -1
100
AcDbLine
 10
-118.25
 20
56.00000000000001
 11
-100.25
 21
38.00000000000001
  0
LINE
  5
DC
100
AcDbEntity
  8
0
  6
ByLayer
 62
  256
370
   -1
100
AcDbLine
 10
-100.25
 20
56.00000000000001
 11
-118.25
 21
38.00000000000001
  0
LINE
  5
DD
100
AcDbEntity
  8
construction
  6
ByLayer
 62
  256
370
   -1
100
AcDbLine
 10
-97.24999999999996
 20
56
 11
-97.24999999999996
 21
74.5
  0
LINE
  5
DE
100
AcDbEntity
  8
construction
  6
ByLayer
 62
  256
370
   -1
100
AcDbLine
 10
-49.24999999999993
 20
22.50000000000003
 11
-30.74999999999993
 21
22.50000000000003
  0
LINE
  5
DF
100
AcDbEntity
  8
0
  6
ByLayer
 62
  256
370
   -1
100
AcDbLine
 10
-94.24999999999994
 20
62.00000000000001
 11
-76.24999999999996
 21
62.00000000000001
  0
LINE
  5
E0
100
AcDbEntity
  8
0
  6
ByLayer
 62
  256
370
   -1
100
AcDbLine
 10
-94.24999999999994
 20
62.00000000000001
 11
-94.24999999999994
 21
80.00000000000001
  0
LINE
  5
E1
100
AcDbEntity
  8
0
  6
ByLayer
 62
  256
370
   -1
100
AcDbLine
 10
-76.24999999999996
 20
62.00000000000001
 11
-76.24999999999996
 21
80.00000000000001
  0
LINE
  5
E2
100
AcDbEntity
  8
0
  6
ByLayer
 62
  256
370
   -1
100
AcDbLine
 10
-94.24999999999994
 20
80.00000000000001
 11
-76.24999999999996
 21
80.00000000000001
  0
LINE
  5
E3
100
AcDbEntity
  8
0
  6
ByLayer
 62
  256
370
   -1
100
AcDbLine
 10
-94.24999999999994
 20
80.00000000000001
 11
-76.24999999999994
 21
62.00000000000001
  0
LINE
  5
E4
100
AcDbEntity
  8
0
  6
ByLayer
 62
  256
370
   -1
100
AcDbLine
 10
-76.24999999999994
 20
80.00000000000001
 11
-94.24999999999994
 21
62.00000000000001
  0
LINE
  5
E5
100
AcDbEntity
  8
0
  6
ByLayer
 62
  256
370
   -1
100
AcDbLine
 10
-118.25
 20
62.00000000000002
 11
-100.25
 21
62.00000000000002
  0
LINE
  5
E6
100
AcDbEntity
  8
0
  6
ByLayer
 62
  256
370
   -1
100
AcDbLine
 10
-118.25
 20
62.00000000000002
 11
-118.25
 21
80.00000000000003
  0
LINE
  5
E7
100
AcDbEntity
  8
0
  6
ByLayer
 62
  256
370
   -1
100
AcDbLine
 10
-100.25
 20
62.00000000000002
 11
-100.25
 21
80.00000000000003
  0
LINE
  5
E8
100
AcDbEntity
  8
0
  6
ByLayer
 62
  256
370
   -1
100
AcDbLine
 10
-118.25
 20
80.00000000000003
 11
-100.25
 21
80.00000000000003
  0
LINE
  5
E9
100
AcDbEntity
  8
0
  6
ByLayer
 62
  256
370
   -1
100
AcDbLine
 10
-118.25
 20
80.00000000000003
 11
-100.25
 21
62.00000000000002
  0
LINE
  5
EA
100
AcDbEntity
  8
0
  6
ByLayer
 62
  256
370
   -1
100
AcDbLine
 10
-100.25
 20
80.00000000000003
 11
-118.25
 21
62.00000000000002
  0
LINE
  5
EB
100
AcDbEntity
  8
construction
  6
ByLayer
 62
  256
370
   -1
100
AcDbLine
 10
-94.24999999999994
 20
95.00000000000001
 11
-76.24999999999996
 21
95.00000000000001
  0
LINE
  5
EC
100
AcDbEntity
  8
0
  6
ByLayer
 62
  256
370
   -1
100
AcDbLine
 10
-94.24999999999994
 20
86.00000000000003
 11
-76.24999999999996
 21
86.00000000000003
  0
LINE
  5
ED
100
AcDbEntity
  8
0
  6
ByLayer
 62
  256
370
   -1
100
AcDbLine
 10
-94.24999999999994
 20
86.00000000000003
 11
-94.24999999999994
 21
104
  0
LINE
  5
EE
100
AcDbEntity
  8
0
  6
ByLayer
 62
  256
370
   -1
100
AcDbLine
 10
-76.24999999999996
 20
86.00000000000003
 11
-76.24999999999996
 21
104
  0
LINE
  5
EF
100
AcDbEntity
  8
0
  6
ByLayer
 62
  256
370
   -1
100
AcDbLine
 10
-94.24999999999994
 20
104
 11
-76.24999999999996
 21
104
  0
LINE
  5
F0
100
AcDbEntity
  8
0
  6
ByLayer
 62
  256
370
   -1
100
AcDbLine
 10
-94.24999999999994
 20
104
 11
-76.24999999999994
 21
86.00000000000003
  0
LINE
  5
F1
100
AcDbEntity
  8
0
  6
ByLayer
 62
  256
370
   -1
100
AcDbLine
 10
-76.24999999999994
 20
104
 11
-94.24999999999994
 21
86.00000000000003
  0
LINE
  5
F2
100
AcDbEntity
  8
0
  6
ByLayer
 62
  256
370
   -1
100
AcDbLine
 10
-118.25
 20
86.00000000000003
 11
-100.25
 21
86.00000000000003
  0
LINE
  5
F3
100
AcDbEntity
  8
0
  6
ByLayer
 62
  256
370
   -1
100
AcDbLine
 10
-118.25
 20
86.00000000000003
 11
-118.25
 21
104
  0
LINE
  5
F4
100
AcDbEntity
  8
0
  6
ByLayer
 62
  256
370
   -1
100
AcDbLine
 10
-100.25
 20
86.00000000000003
 11
-100.25
 21
104
  0
LINE
  5
F5
100
AcDbEntity
  8
0
  6
ByLayer
 62
  256
370
   -1
100
AcDbLine
 10
-118.25
 20
104
 11
-100.25
 21
104
  0
LINE
  5
F6
100
AcDbEntity
  8
0
  6
ByLayer
 62
  256
370
   -1
100
AcDbLine
 10
-118.25
 20
104
 11
-100.25
 21
86.00000000000003
  0
LINE
  5
F7
100
AcDbEntity
  8
0
  6
ByLayer
 62
  256
370
   -1
100
AcDbLine
 10
-100.25
 20
104
 11
-118.25
 21
86.00000000000003
  0
LINE
  5
F8
100
AcDbEntity
  8
construction
  6
ByLayer
 62
  256
370
   -1
100
AcDbLine
 10
-94.24999999999994
 20
119
 11
-76.24999999999996
 21
119
  0
LINE
  5
F9
100
AcDbEntity
  8
0
  6
ByLayer
 62
  256
370
   -1
100
AcDbLine
 10
195.2499999999994
 20
128.5
 11
195.2499999999994
 21
109.5
  0
LINE
  5
FA
100
AcDbEntity
  8
0
  6
ByLayer
 62
  256
370
   -1
100
AcDbLine
 10
195.2499999999994
 20
109.5
 11
130.2499999999994
 21
109.5
  0
LINE
  5
FB
100
AcDbEntity
  8
0
  6
ByLayer
 62
  256
370
   -1
100
AcDbLine
 10
130.2499999999994
 20
128.5
 11
130.2499999999994
 21
109.5
  0
LINE
  5
FC
100
AcDbEntity
  8
0
  6
ByLayer
 62
  256
370
   -1
100
AcDbLine
 10
195.2499999999994
 20
128.5
 11
130.2499999999994
 21
128.5
  0
ARC
  5
FD
100
AcDbEntity
  8
0
  6
ByLayer
 62
  256
370
   -1
100
AcDbCircle
 10
130.2499999999994
 20
128.5
 40
0
100
AcDbArc
 50
0
 51
0
  0
LINE
  5
FE
100
AcDbEntity
  8
0
  6
ByLayer
 62
  256
370
   -1
100
AcDbLine
 10
17.75000000000011
 20
128.5
 11
17.75000000000011
 21
109.5
  0
LINE
  5
FF
100
AcDbEntity
  8
0
  6
ByLayer
 62
  256
370
   -1
100
AcDbLine
 10
82.75000000000013
 20
128.5
 11
17.75000000000011
 21
128.5
  0
LINE
  5
100
100
AcDbEntity
  8
0
  6
ByLayer
 62
  256
370
   -1
100
AcDbLine
 10
82.75000000000013
 20
128.5
 11
82.75000000000013
 21
109.5
  0
LINE
  5
101
100
AcDbEntity
  8
0
  6
ByLayer
 62
  256
370
   -1
100
AcDbLine
 10
82.75000000000013
 20
109.5
 11
17.75000000000011
 21
109.5
  0
ARC
  5
102
100
AcDbEntity
  8
0
  6
ByLayer
 62
  256
370
   -1
100
AcDbCircle
 10
82.75000000000013
 20
109.5
 40
0
100
AcDbArc
 50
0
 51
0
  0
LINE
  5
103
100
AcDbEntity
  8
0
  6
ByLayer
 62
  256
370
   -1
100
AcDbLine
 10
130.2499999999994
 20
109.5
 11
195.2499999999994
 21
128.5
  0
LINE
  5
104
100
AcDbEntity
  8
0
  6
ByLayer
 62
  256
370
   -1
100
AcDbLine
 10
195.2499999999994
 20
128.5
 11
130.2499999999994
 21
128.5
  0
LINE
  5
105
100
AcDbEntity
  8
0
  6
ByLayer
 62
  256
370
   -1
100
AcDbLine
 10
195.2499999999994
 20
109.5
 11
130.2499999999994
 21
128.5
  0
LINE
  5
106
100
AcDbEntity
  8
0
  6
ByLayer
 62
  256
370
   -1
100
AcDbLine
 10
17.75000000000011
 20
128.5
 11
82.75000000000013
 21
109.5
  0
LINE
  5
107
100
AcDbEntity
  8
0
  6
ByLayer
 62
  256
370
   -1
100
AcDbLine
 10
82.75000000000013
 20
109.5
 11
17.75000000000011
 21
109.5
  0
LINE
  5
108
100
AcDbEntity
  8
0
  6
ByLayer
 62
  256
370
   -1
100
AcDbLine
 10
17.75000000000011
 20
109.5
 11
82.75000000000013
 21
128.5
  0
LINE
  5
109
100
AcDbEntity
  8
0
  6
ByLayer
 62
  256
370
   -1
100
AcDbLine
 10
-64.74999999999989
 20
126.5
 11
-33.74999999999999
 21
111.5
  0
LINE
  5
10A
100
AcDbEntity
  8
0
  6
ByLayer
 62
  256
370
   -1
100
AcDbLine
 10
-64.74999999999989
 20
111.5
 11
-33.74999999999999
 21
126.5
  0
LINE
  5
10B
100
AcDbEntity
  8
0
  6
ByLayer
 62
  256
370
   -1
100
AcDbLine
 10
-33.74999999999999
 20
126.5
 11
-64.74999999999989
 21
126.5
  0
LINE
  5
10C
100
AcDbEntity
  8
0
  6
ByLayer
 62
  256
370
   -1
100
AcDbLine
 10
-64.74999999999989
 20
126.5
 11
-64.74999999999989
 21
111.5
  0
LINE
  5
10D
100
AcDbEntity
  8
0
  6
ByLayer
 62
  256
370
   -1
100
AcDbLine
 10
-64.74999999999989
 20
111.5
 11
-33.74999999999999
 21
111.5
  0
LINE
  5
10E
100
AcDbEntity
  8
0
  6
ByLayer
 62
  256
370
   -1
100
AcDbLine
 10
-33.74999999999999
 20
111.5
 11
-33.74999999999999
 21
126.5
  0
LINE
  5
10F
100
AcDbEntity
  8
0
  6
ByLayer
 62
  256
370
   -1
100
AcDbLine
 10
-94.24999999999993
 20
110
 11
-76.24999999999994
 21
110
  0
LINE
  5
110
100
AcDbEntity
  8
0
  6
ByLayer
 62
  256
370
   -1
100
AcDbLine
 10
-94.24999999999993
 20
110
 11
-94.24999999999993
 21
128
  0
LINE
  5
111
100
AcDbEntity
  8
0
  6
ByLayer
 62
  256
370
   -1
100
AcDbLine
 10
-76.24999999999994
 20
110
 11
-76.24999999999994
 21
128
  0
LINE
  5
112
100
AcDbEntity
  8
0
  6
ByLayer
 62
  256
370
   -1
100
AcDbLine
 10
-94.24999999999993
 20
128
 11
-76.24999999999994
 21
128
  0
LINE
  5
113
100
AcDbEntity
  8
0
  6
ByLayer
 62
  256
370
   -1
100
AcDbLine
 10
-94.24999999999993
 20
128
 11
-76.24999999999993
 21
110
  0
LINE
  5
114
100
AcDbEntity
  8
0
  6
ByLayer
 62
  256
370
   -1
100
AcDbLine
 10
-76.24999999999993
 20
128
 11
-94.24999999999993
 21
110
  0
LINE
  5
115
100
AcDbEntity
  8
0
  6
ByLayer
 62
  256
370
   -1
100
AcDbLine
 10
-118.2499999999999
 20
110
 11
-100.25
 21
110
  0
LINE
  5
116
100
AcDbEntity
  8
0
  6
ByLayer
 62
  256
370
   -1
100
AcDbLine
 10
-118.2499999999999
 20
110
 11
-118.2499999999999
 21
128.0000000000001
  0
LINE
  5
117
100
AcDbEntity
  8
0
  6
ByLayer
 62
  256
370
   -1
100
AcDbLine
 10
-100.25
 20
110
 11
-100.25
 21
128.0000000000001
  0
LINE
  5
118
100
AcDbEntity
  8
0
  6
ByLayer
 62
  256
370
   -1
100
AcDbLine
 10
-118.2499999999999
 20
128.0000000000001
 11
-100.25
 21
128.0000000000001
  0
LINE
  5
119
100
AcDbEntity
  8
0
  6
ByLayer
 62
  256
370
   -1
100
AcDbLine
 10
-118.2499999999999
 20
128.0000000000001
 11
-100.2499999999999
 21
110
  0
LINE
  5
11A
100
AcDbEntity
  8
0
  6
ByLayer
 62
  256
370
   -1
100
AcDbLine
 10
-100.2499999999999
 20
128.0000000000001
 11
-118.2499999999999
 21
110
  0
CIRCLE
  5
11B
100
AcDbEntity
  8
0
  6
ByLayer
 62
  256
370
   -1
100
AcDbCircle
 10
106
 20
95.00000000000001
 40
9.5
  0
LINE
  5
11C
100
AcDbEntity
  8
Other
  6
ByLayer
 62
  256
370
   -1
100
AcDbLine
 10
-145.5133468340263
 20
185.6459255962703
 11
-145.5133468340263
 21
216.6459255962703
  0
LINE
  5
11D
100
AcDbEntity
  8
Other
  6
ByLayer
 62
  256
370
   -1
100
AcDbLine
 10
-145.5133468340263
 20
185.6459255962703
 11
-157.7633468340263
 21
185.6459255962703
  0
LINE
  5
11E
100
AcDbEntity
  8
Other
  6
ByLayer
 62
  256
370
   -1
100
AcDbLine
 10
-145.5133468340263
 20
216.6459255962703
 11
-157.7633468340263
 21
216.6459255962703
  0
LINE
  5
11F
100
AcDbEntity
  8
Other
  6
ByLayer
 62
  256
370
   -1
100
AcDbLine
 10
-157.7633468340263
 20
216.6459255962703
 11
-157.7633468340263
 21
185.6459255962703
  0
LINE
  5
120
100
AcDbEntity
  8
Other
  6
ByLayer
 62
  256
370
   -1
100
AcDbLine
 10
-157.7633468340263
 20
216.6459255962703
 11
-145.5133468340263
 21
185.6459255962703
  0
LINE
  5
121
100
AcDbEntity
  8
Other
  6
ByLayer
 62
  256
370
   -1
100
AcDbLine
 10
-157.7633468340263
 20
185.6459255962703
 11
-145.5133468340263
 21
216.6459255962703
  0
LINE
  5
122
100
AcDbEntity
  8
Other
  6
ByLayer
 62
  256
370
   -1
100
AcDbLine
 10
-177.1383468340263
 20
164.8959255962701
 11
-146.1383468340263
 21
164.8959255962701
  0
LINE
  5
123
100
AcDbEntity
  8
Other
  6
ByLayer
 62
  256
370
   -1
100
AcDbLine
 10
-177.1383468340263
 20
164.8959255962701
 11
-177.1383468340263
 21
177.1459255962701
  0
LINE
  5
124
100
AcDbEntity
  8
Other
  6
ByLayer
 62
  256
370
   -1
100
AcDbLine
 10
-146.1383468340263
 20
164.8959255962701
 11
-146.1383468340263
 21
177.1459255962701
  0
LINE
  5
125
100
AcDbEntity
  8
Other
  6
ByLayer
 62
  256
370
   -1
100
AcDbLine
 10
-146.1383468340263
 20
177.1459255962701
 11
-177.1383468340263
 21
177.1459255962701
  0
LINE
  5
126
100
AcDbEntity
  8
Other
  6
ByLayer
 62
  256
370
   -1
100
AcDbLine
 10
-146.1383468340263
 20
177.1459255962701
 11
-177.1383468340263
 21
164.8959255962701
  0
LINE
  5
127
100
AcDbEntity
  8
Other
  6
ByLayer
 62
  256
370
   -1
100
AcDbLine
 10
-177.1383468340263
 20
177.1459255962701
 11
-146.1383468340263
 21
164.8959255962701
  0
LINE
  5
128
100
AcDbEntity
  8
Other
  6
ByLayer
 62
  256
370
   -1
100
AcDbLine
 10
-176.1383468340263
 20
211.5209255962701
 11
-176.1383468340263
 21
190.5209255962701
  0
LINE
  5
129
100
AcDbEntity
  8
Other
  6
ByLayer
 62
  256
370
   -1
100
AcDbLine
 10
-176.1383468340263
 20
211.5209255962701
 11
-187.1383468340263
 21
211.5209255962701
  0
LINE
  5
12A
100
AcDbEntity
  8
Other
  6
ByLayer
 62
  256
370
   -1
100
AcDbLine
 10
-176.1383468340263
 20
190.5209255962701
 11
-187.1383468340263
 21
190.5209255962701
  0
LINE
  5
12B
100
AcDbEntity
  8
Other
  6
ByLayer
 62
  256
370
   -1
100
AcDbLine
 10
-187.1383468340263
 20
190.5209255962701
 11
-187.1383468340263
 21
211.5209255962701
  0
LINE
  5
12C
100
AcDbEntity
  8
Other
  6
ByLayer
 62
  256
370
   -1
100
AcDbLine
 10
-187.1383468340263
 20
211.5209255962701
 11
-176.1383468340263
 21
190.5209255962701
  0
LINE
  5
12D
100
AcDbEntity
  8
Other
  6
ByLayer
 62
  256
370
   -1
100
AcDbLine
 10
-176.1383468340263
 20
190.5209255962701
 11
-176.1383468340263
 21
211.5209255962701
  0
LINE
  5
12E
100
AcDbEntity
  8
Other
  6
ByLayer
 62
  256
370
   -1
100
AcDbLine
 10
-176.1383468340263
 20
211.5209255962701
 11
-187.1383468340263
 21
190.5209255962701
  0
LINE
  5
12F
100
AcDbEntity
  8
Other
  6
ByLayer
 62
  256
370
   -1
100
AcDbLine
 10
-201.6383468340263
 20
190.5209255962701
 11
-201.6383468340263
 21
211.5209255962701
  0
LINE
  5
130
100
AcDbEntity
  8
Other
  6
ByLayer
 62
  256
370
   -1
100
AcDbLine
 10
-161.6383468340263
 20
190.5209255962701
 11
-161.6383468340263
 21
211.5209255962701
  0
LINE
  5
131
100
AcDbEntity
  8
Other
  6
ByLayer
 62
  256
370
   -1
100
AcDbLine
 10
-201.6383468340263
 20
190.5209255962701
 11
-161.6383468340263
 21
190.5209255962701
  0
LINE
  5
132
100
AcDbEntity
  8
Other
  6
ByLayer
 62
  256
370
   -1
100
AcDbLine
 10
-201.6383468340263
 20
195.0209255962701
 11
-161.6383468340263
 21
195.0209255962701
  0
LINE
  5
133
100
AcDbEntity
  8
Other
  6
ByLayer
 62
  256
370
   -1
100
AcDbLine
 10
-161.6383468340263
 20
211.5209255962701
 11
-201.6383468340263
 21
211.5209255962701
  0
LINE
  5
134
100
AcDbEntity
  8
Other
  6
ByLayer
 62
  256
370
   -1
100
AcDbLine
 10
-161.6383468340263
 20
207.0209255962701
 11
-201.6383468340263
 21
207.0209255962701
  0
LINE
  5
135
100
AcDbEntity
  8
Other
  6
ByLayer
 62
  256
370
   -1
100
AcDbLine
 10
-193.1383468340263
 20
207.0209255962701
 11
-193.1383468340263
 21
195.0209255962701
  0
LINE
  5
136
100
AcDbEntity
  8
Other
  6
ByLayer
 62
  256
370
   -1
100
AcDbLine
 10
-167.6383468340263
 20
195.0209255962701
 11
-167.6383468340263
 21
207.0209255962701
  0
LINE
  5
137
100
AcDbEntity
  8
Other
  6
ByLayer
 62
  256
370
   -1
100
AcDbLine
 10
-232.1383468340263
 20
186.5209255962701
 11
-211.1383468340263
 21
186.5209255962701
  0
LINE
  5
138
100
AcDbEntity
  8
Other
  6
ByLayer
 62
  256
370
   -1
100
AcDbLine
 10
-232.1383468340263
 20
186.5209255962701
 11
-232.1383468340263
 21
175.5209255962701
  0
LINE
  5
139
100
AcDbEntity
  8
Other
  6
ByLayer
 62
  256
370
   -1
100
AcDbLine
 10
-211.1383468340263
 20
186.5209255962701
 11
-211.1383468340263
 21
175.5209255962701
  0
LINE
  5
13A
100
AcDbEntity
  8
Other
  6
ByLayer
 62
  256
370
   -1
100
AcDbLine
 10
-211.1383468340263
 20
175.5209255962701
 11
-232.1383468340263
 21
175.5209255962701
  0
LINE
  5
13B
100
AcDbEntity
  8
Other
  6
ByLayer
 62
  256
370
   -1
100
AcDbLine
 10
-232.1383468340263
 20
175.5209255962701
 11
-211.1383468340263
 21
186.5209255962701
  0
LINE
  5
13C
100
AcDbEntity
  8
Other
  6
ByLayer
 62
  256
370
   -1
100
AcDbLine
 10
-211.1383468340263
 20
186.5209255962701
 11
-232.1383468340263
 21
186.5209255962701
  0
LINE
  5
13D
100
AcDbEntity
  8
Other
  6
ByLayer
 62
  256
370
   -1
100
AcDbLine
 10
-232.1383468340263
 20
186.5209255962701
 11
-211.1383468340263
 21
175.5209255962701
  0
LINE
  5
13E
100
AcDbEntity
  8
Other
  6
ByLayer
 62
  256
370
   -1
100
AcDbLine
 10
-211.1383468340263
 20
161.0209255962701
 11
-232.1383468340263
 21
161.0209255962701
  0
LINE
  5
13F
100
AcDbEntity
  8
Other
  6
ByLayer
 62
  256
370
   -1
100
AcDbLine
 10
-211.1383468340263
 20
201.0209255962701
 11
-232.1383468340263
 21
201.0209255962701
  0
LINE
  5
140
100
AcDbEntity
  8
Other
  6
ByLayer
 62
  256
370
   -1
100
AcDbLine
 10
-211.1383468340263
 20
161.0209255962701
 11
-211.1383468340263
 21
201.0209255962701
  0
LINE
  5
141
100
AcDbEntity
  8
Other
  6
ByLayer
 62
  256
370
   -1
100
AcDbLine
 10
-215.6383468340263
 20
161.0209255962701
 11
-215.6383468340263
 21
201.0209255962701
  0
LINE
  5
142
100
AcDbEntity
  8
Other
  6
ByLayer
 62
  256
370
   -1
100
AcDbLine
 10
-232.1383468340263
 20
201.0209255962701
 11
-232.1383468340263
 21
161.0209255962701
  0
LINE
  5
143
100
AcDbEntity
  8
Other
  6
ByLayer
 62
  256
370
   -1
100
AcDbLine
 10
-227.6383468340263
 20
201.0209255962701
 11
-227.6383468340263
 21
161.0209255962701
  0
LINE
  5
144
100
AcDbEntity
  8
Other
  6
ByLayer
 62
  256
370
   -1
100
AcDbLine
 10
-227.6383468340263
 20
169.5209255962701
 11
-215.6383468340263
 21
169.5209255962701
  0
LINE
  5
145
100
AcDbEntity
  8
Other
  6
ByLayer
 62
  256
370
   -1
100
AcDbLine
 10
-215.6383468340263
 20
195.0209255962701
 11
-227.6383468340263
 21
195.0209255962701
  0
LINE
  5
146
100
AcDbEntity
  8
Other
  6
ByLayer
 62
  256
370
   -1
100
AcDbLine
 10
-243.8883468340263
 20
200.2709255962701
 11
-279.3883468340263
 21
200.2709255962701
  0
LINE
  5
147
100
AcDbEntity
  8
Other
  6
ByLayer
 62
  256
370
   -1
100
AcDbLine
 10
-243.8883468340263
 20
200.2709255962701
 11
-243.8883468340263
 21
181.7709255962701
  0
LINE
  5
148
100
AcDbEntity
  8
Other
  6
ByLayer
 62
  256
370
   -1
100
AcDbLine
 10
-279.3883468340263
 20
200.2709255962701
 11
-279.3883468340263
 21
181.7709255962701
  0
LINE
  5
149
100
AcDbEntity
  8
Other
  6
ByLayer
 62
  256
370
   -1
100
AcDbLine
 10
-279.3883468340263
 20
181.7709255962701
 11
-243.8883468340263
 21
181.7709255962701
  0
LINE
  5
14A
100
AcDbEntity
  8
Other
  6
ByLayer
 62
  256
370
   -1
100
AcDbLine
 10
-279.3883468340263
 20
181.7709255962701
 11
-243.8883468340263
 21
200.2709255962701
  0
LINE
  5
14B
100
AcDbEntity
  8
Other
  6
ByLayer
 62
  256
370
   -1
100
AcDbLine
 10
-279.3883468340263
 20
200.2709255962701
 11
-243.8883468340263
 21
181.7709255962701
  0
LINE
  5
14C
100
AcDbEntity
  8
Other
  6
ByLayer
 62
  256
370
   -1
100
AcDbLine
 10
-282.3883468340263
 20
173.2709255962701
 11
-282.3883468340263
 21
208.7709255962701
  0
LINE
  5
14D
100
AcDbEntity
  8
Other
  6
ByLayer
 62
  256
370
   -1
100
AcDbLine
 10
-282.3883468340263
 20
173.2709255962701
 11
-300.8883468340263
 21
173.2709255962701
  0
LINE
  5
14E
100
AcDbEntity
  8
Other
  6
ByLayer
 62
  256
370
   -1
100
AcDbLine
 10
-282.3883468340263
 20
208.7709255962701
 11
-300.8883468340263
 21
208.7709255962701
  0
LINE
  5
14F
100
AcDbEntity
  8
Other
  6
ByLayer
 62
  256
370
   -1
100
AcDbLine
 10
-300.8883468340263
 20
208.7709255962701
 11
-300.8883468340263
 21
173.2709255962701
  0
LINE
  5
150
100
AcDbEntity
  8
Other
  6
ByLayer
 62
  256
370
   -1
100
AcDbLine
 10
-300.8883468340263
 20
208.7709255962701
 11
-282.3883468340263
 21
173.2709255962701
  0
LINE
  5
151
100
AcDbEntity
  8
Other
  6
ByLayer
 62
  256
370
   -1
100
AcDbLine
 10
-282.3883468340263
 20
208.7709255962701
 11
-300.8883468340263
 21
173.2709255962701
  0
LINE
  5
152
100
AcDbEntity
  8
Other
  6
ByLayer
 62
  256
370
   -1
100
AcDbLine
 10
-243.8883468340263
 20
191.0209255962701
 11
-279.3883468340263
 21
191.0209255962701
  0
LINE
  5
153
100
AcDbEntity
  8
Other
  6
ByLayer
 62
  256
370
   -1
100
AcDbLine
 10
-282.3883468340263
 20
191.0209255962701
 11
-300.8883468340263
 21
191.0209255962701
  0
LINE
  5
154
100
AcDbEntity
  8
Other
  6
ByLayer
 62
  256
370
   -1
100
AcDbLine
 10
-291.6383468340263
 20
208.7709255962701
 11
-291.6383468340263
 21
173.2709255962701
  0
LINE
  5
155
100
AcDbEntity
  8
Other
  6
ByLayer
 62
  256
370
   -1
100
AcDbLine
 10
-261.6383468340263
 20
181.7709255962701
 11
-261.6383468340263
 21
200.2709255962701
  0
CIRCLE
  5
156
100
AcDbEntity
  8
Other
  6
ByLayer
 62
  256
370
   -1
100
AcDbCircle
 10
-141.6383468340263
 20
201.0209255962701
 40
3
  0
LINE
  5
157
100
AcDbEntity
  8
construction
  6
ByLayer
 62
  256
370
   -1
100
AcDbLine
 10
-133.2499999999999
 20
110
 11
-133.2499999999999
 21
128.0000000000001
  0
LINE
  5
158
100
AcDbEntity
  8
0
  6
ByLayer
 62
  256
370
   -1
100
AcDbLine
 10
-142.25
 20
37.99999999999994
 11
-124.25
 21
37.99999999999994
  0
LINE
  5
159
100
AcDbEntity
  8
0
  6
ByLayer
 62
  256
370
   -1
100
AcDbLine
 10
-142.25
 20
37.99999999999994
 11
-142.25
 21
55.99999999999995
  0
LINE
  5
15A
100
AcDbEntity
  8
0
  6
ByLayer
 62
  256
370
   -1
100
AcDbLine
 10
-124.25
 20
37.99999999999994
 11
-124.25
 21
55.99999999999995
  0
LINE
  5
15B
100
AcDbEntity
  8
0
  6
ByLayer
 62
  256
370
   -1
100
AcDbLine
 10
-142.25
 20
55.99999999999995
 11
-124.25
 21
55.99999999999995
  0
LINE
  5
15C
100
AcDbEntity
  8
0
  6
ByLayer
 62
  256
370
   -1
100
AcDbLine
 10
-142.25
 20
55.99999999999995
 11
-124.25
 21
37.99999999999994
  0
LINE
  5
15D
100
AcDbEntity
  8
0
  6
ByLayer
 62
  256
370
   -1
100
AcDbLine
 10
-124.25
 20
55.99999999999995
 11
-142.25
 21
37.99999999999994
  0
LINE
  5
15E
100
AcDbEntity
  8
0
  6
ByLayer
 62
  256
370
   -1
100
AcDbLine
 10
-142.25
 20
61.99999999999996
 11
-124.25
 21
61.99999999999996
  0
LINE
  5
15F
100
AcDbEntity
  8
0
  6
ByLayer
 62
  256
370
   -1
100
AcDbLine
 10
-142.25
 20
61.99999999999996
 11
-142.25
 21
79.99999999999997
  0
LINE
  5
160
100
AcDbEntity
  8
0
  6
ByLayer
 62
  256
370
   -1
100
AcDbLine
 10
-124.25
 20
61.99999999999996
 11
-124.25
 21
79.99999999999997
  0
LINE
  5
161
100
AcDbEntity
  8
0
  6
ByLayer
 62
  256
370
   -1
100
AcDbLine
 10
-142.25
 20
79.99999999999997
 11
-124.25
 21
79.99999999999997
  0
LINE
  5
162
100
AcDbEntity
  8
0
  6
ByLayer
 62
  256
370
   -1
100
AcDbLine
 10
-142.25
 20
79.99999999999997
 11
-124.25
 21
61.99999999999996
  0
LINE
  5
163
100
AcDbEntity
  8
0
  6
ByLayer
 62
  256
370
   -1
100
AcDbLine
 10
-124.25
 20
79.99999999999997
 11
-142.25
 21
61.99999999999996
  0
LINE
  5
164
100
AcDbEntity
  8
0
  6
ByLayer
 62
  256
370
   -1
100
AcDbLine
 10
-142.25
 20
85.99999999999997
 11
-124.25
 21
85.99999999999997
  0
LINE
  5
165
100
AcDbEntity
  8
0
  6
ByLayer
 62
  256
370
   -1
100
AcDbLine
 10
-142.25
 20
85.99999999999997
 11
-142.25
 21
103.9999999999999
  0
LINE
  5
166
100
AcDbEntity
  8
0
  6
ByLayer
 62
  256
370
   -1
100
AcDbLine
 10
-124.25
 20
85.99999999999997
 11
-124.25
 21
103.9999999999999
  0
LINE
  5
167
100
AcDbEntity
  8
0
  6
ByLayer
 62
  256
370
   -1
100
AcDbLine
 10
-142.25
 20
103.9999999999999
 11
-124.25
 21
103.9999999999999
  0
LINE
  5
168
100
AcDbEntity
  8
0
  6
ByLayer
 62
  256
370
   -1
100
AcDbLine
 10
-142.25
 20
103.9999999999999
 11
-124.25
 21
85.99999999999997
  0
LINE
  5
169
100
AcDbEntity
  8
0
  6
ByLayer
 62
  256
370
   -1
100
AcDbLine
 10
-124.25
 20
103.9999999999999
 11
-142.25
 21
85.99999999999997
  0
LINE
  5
16A
100
AcDbEntity
  8
0
  6
ByLayer
 62
  256
370
   -1
100
AcDbLine
 10
-142.2499999999999
 20
109.9999999999999
 11
-124.25
 21
109.9999999999999
  0
LINE
  5
16B
100
AcDbEntity
  8
0
  6
ByLayer
 62
  256
370
   -1
100
AcDbLine
 10
-142.2499999999999
 20
109.9999999999999
 11
-142.2499999999999
 21
128.0000000000001
  0
LINE
  5
16C
100
AcDbEntity
  8
0
  6
ByLayer
 62
  256
370
   -1
100
AcDbLine
 10
-124.25
 20
109.9999999999999
 11
-124.25
 21
128.0000000000001
  0
LINE
  5
16D
100
AcDbEntity
  8
0
  6
ByLayer
 62
  256
370
   -1
100
AcDbLine
 10
-142.2499999999999
 20
128.0000000000001
 11
-124.25
 21
128.0000000000001
  0
LINE
  5
16E
100
AcDbEntity
  8
0
  6
ByLayer
 62
  256
370
   -1
100
AcDbLine
 10
-142.2499999999999
 20
128.0000000000001
 11
-124.2499999999999
 21
109.9999999999999
  0
LINE
  5
16F
100
AcDbEntity
  8
0
  6
ByLayer
 62
  256
370
   -1
100
AcDbLine
 10
-124.2499999999999
 20
128.0000000000001
 11
-142.2499999999999
 21
109.9999999999999
  0
LINE
  5
170
100
AcDbEntity
  8
0
  6
ByLayer
 62
  256
370
   -1
100
AcDbLine
 10
-124.25
 20
55.99999999999995
 11
-118.25
 21
56.00000000000001
  0
LINE
  5
171
100
AcDbEntity
  8
0
  6
ByLayer
 62
  256
370
   -1
100
AcDbLine
 10
-118.25
 20
38.00000000000001
 11
-124.25
 21
37.99999999999994
  0
LINE
  5
172
100
AcDbEntity
  8
construction
  6
ByLayer
 62
  256
370
   -1
100
AcDbLine
 10
-121.25
 20
37.99999999999997
 11
-121.25
 21
55.99999999999998
  0
LINE
  5
173
100
AcDbEntity
  8
0
  6
ByLayer
 62
  256
370
   -1
100
AcDbLine
 10
-67.74999999999993
 20
33
 11
-67.74999999999993
 21
12
  0
LINE
  5
174
100
AcDbEntity
  8
0
  6
ByLayer
 62
  256
370
   -1
100
AcDbLine
 10
-67.74999999999993
 20
33
 11
-78.74999999999993
 21
33
  0
LINE
  5
175
100
AcDbEntity
  8
0
  6
ByLayer
 62
  256
370
   -1
100
AcDbLine
 10
-67.74999999999993
 20
12
 11
-78.74999999999993
 21
12
  0
LINE
  5
176
100
AcDbEntity
  8
0
  6
ByLayer
 62
  256
370
   -1
100
AcDbLine
 10
-78.74999999999993
 20
12
 11
-78.74999999999993
 21
33
  0
LINE
  5
177
100
AcDbEntity
  8
0
  6
ByLayer
 62
  256
370
   -1
100
AcDbLine
 10
-78.74999999999993
 20
33
 11
-67.74999999999993
 21
12
  0
LINE
  5
178
100
AcDbEntity
  8
0
  6
ByLayer
 62
  256
370
   -1
100
AcDbLine
 10
-67.74999999999993
 20
12
 11
-67.74999999999993
 21
33
  0
LINE
  5
179
100
AcDbEntity
  8
0
  6
ByLayer
 62
  256
370
   -1
100
AcDbLine
 10
-67.74999999999993
 20
33
 11
-78.74999999999993
 21
12
  0
LINE
  5
17A
100
AcDbEntity
  8
0
  6
ByLayer
 62
  256
370
   -1
100
AcDbLine
 10
-93.24999999999993
 20
12
 11
-93.24999999999993
 21
33
  0
LINE
  5
17B
100
AcDbEntity
  8
0
  6
ByLayer
 62
  256
370
   -1
100
AcDbLine
 10
-53.24999999999993
 20
12
 11
-53.24999999999993
 21
33
  0
LINE
  5
17C
100
AcDbEntity
  8
0
  6
ByLayer
 62
  256
370
   -1
100
AcDbLine
 10
-93.24999999999993
 20
12
 11
-53.24999999999993
 21
12
  0
LINE
  5
17D
100
AcDbEntity
  8
0
  6
ByLayer
 62
  256
370
   -1
100
AcDbLine
 10
-93.24999999999993
 20
16.5
 11
-53.24999999999993
 21
16.5
  0
LINE
  5
17E
100
AcDbEntity
  8
0
  6
ByLayer
 62
  256
370
   -1
100
AcDbLine
 10
-53.24999999999993
 20
33
 11
-93.24999999999993
 21
33
  0
LINE
  5
17F
100
AcDbEntity
  8
0
  6
ByLayer
 62
  256
370
   -1
100
AcDbLine
 10
-53.24999999999993
 20
28.5
 11
-93.24999999999993
 21
28.5
  0
LINE
  5
180
100
AcDbEntity
  8
0
  6
ByLayer
 62
  256
370
   -1
100
AcDbLine
 10
-84.74999999999993
 20
28.5
 11
-84.74999999999993
 21
16.5
  0
LINE
  5
181
100
AcDbEntity
  8
0
  6
ByLayer
 62
  256
370
   -1
100
AcDbLine
 10
-59.24999999999993
 20
16.5
 11
-59.24999999999993
 21
28.5
  0
LINE
  5
182
100
AcDbEntity
  8
0
  6
ByLayer
 62
  256
370
   -1
100
AcDbLine
 10
-115.75
 20
33
 11
-115.75
 21
12
  0
LINE
  5
183
100
AcDbEntity
  8
0
  6
ByLayer
 62
  256
370
   -1
100
AcDbLine
 10
-115.75
 20
33
 11
-126.75
 21
33
  0
LINE
  5
184
100
AcDbEntity
  8
0
  6
ByLayer
 62
  256
370
   -1
100
AcDbLine
 10
-115.75
 20
12
 11
-126.75
 21
12
  0
LINE
  5
185
100
AcDbEntity
  8
0
  6
ByLayer
 62
  256
370
   -1
100
AcDbLine
 10
-126.75
 20
12
 11
-126.75
 21
33
  0
LINE
  5
186
100
AcDbEntity
  8
0
  6
ByLayer
 62
  256
370
   -1
100
AcDbLine
 10
-126.75
 20
33
 11
-115.75
 21
12
  0
LINE
  5
187
100
AcDbEntity
  8
0
  6
ByLayer
 62
  256
370
   -1
100
AcDbLine
 10
-115.75
 20
12
 11
-115.75
 21
33
  0
LINE
  5
188
100
AcDbEntity
  8
0
  6
ByLayer
 62
  256
370
   -1
100
AcDbLine
 10
-115.75
 20
33
 11
-126.75
 21
12
  0
LINE
  5
189
100
AcDbEntity
  8
0
  6
ByLayer
 62
  256
370
   -1
100
AcDbLine
 10
-141.25
 20
12
 11
-141.25
 21
33
  0
LINE
  5
18A
100
AcDbEntity
  8
0
  6
ByLayer
 62
  256
370
   -1
100
AcDbLine
 10
-101.25
 20
12
 11
-101.25
 21
33
  0
LINE
  5
18B
100
AcDbEntity
  8
0
  6
ByLayer
 62
  256
370
   -1
100
AcDbLine
 10
-141.25
 20
12
 11
-101.25
 21
12
  0
LINE
  5
18C
100
AcDbEntity
  8
0
  6
ByLayer
 62
  256
370
   -1
100
AcDbLine
 10
-141.25
 20
16.5
 11
-101.25
 21
16.5
  0
LINE
  5
18D
100
AcDbEntity
  8
0
  6
ByLayer
 62
  256
370
   -1
100
AcDbLine
 10
-101.25
 20
33
 11
-141.25
 21
33
  0
LINE
  5
18E
100
AcDbEntity
  8
0
  6
ByLayer
 62
  256
370
   -1
100
AcDbLine
 10
-101.25
 20
28.5
 11
-141.25
 21
28.5
  0
LINE
  5
18F
100
AcDbEntity
  8
0
  6
ByLayer
 62
  256
370
   -1
100
AcDbLine
 10
-132.75
 20
28.5
 11
-132.75
 21
16.5
  0
LINE
  5
190
100
AcDbEntity
  8
0
  6
ByLayer
 62
  256
370
   -1
100
AcDbLine
 10
-107.25
 20
16.5
 11
-107.25
 21
28.5
  0
LINE
  5
191
100
AcDbEntity
  8
0
  6
ByLayer
 62
  256
370
   -1
100
AcDbLine
 10
38.50000000000001
 20
12
 11
38.50000000000001
 21
33
  0
LINE
  5
192
100
AcDbEntity
  8
0
  6
ByLayer
 62
  256
370
   -1
100
AcDbLine
 10
24.00000000000001
 20
33.00000000000003
 11
24.00000000000001
 21
12.00000000000003
  0
LINE
  5
193
100
AcDbEntity
  8
0
  6
ByLayer
 62
  256
370
   -1
100
AcDbLine
 10
24.00000000000001
 20
33.00000000000003
 11
13.00000000000001
 21
33.00000000000003
  0
LINE
  5
194
100
AcDbEntity
  8
0
  6
ByLayer
 62
  256
370
   -1
100
AcDbLine
 10
24.00000000000001
 20
12.00000000000003
 11
13.00000000000001
 21
12.00000000000003
  0
LINE
  5
195
100
AcDbEntity
  8
0
  6
ByLayer
 62
  256
370
   -1
100
AcDbLine
 10
13.00000000000001
 20
12.00000000000003
 11
13.00000000000001
 21
33.00000000000003
  0
LINE
  5
196
100
AcDbEntity
  8
0
  6
ByLayer
 62
  256
370
   -1
100
AcDbLine
 10
13.00000000000001
 20
33.00000000000003
 11
24.00000000000001
 21
12.00000000000003
  0
LINE
  5
197
100
AcDbEntity
  8
0
  6
ByLayer
 62
  256
370
   -1
100
AcDbLine
 10
24.00000000000001
 20
12.00000000000003
 11
24.00000000000001
 21
33.00000000000003
  0
LINE
  5
198
100
AcDbEntity
  8
0
  6
ByLayer
 62
  256
370
   -1
100
AcDbLine
 10
24.00000000000001
 20
33.00000000000003
 11
13.00000000000001
 21
12.00000000000003
  0
LINE
  5
199
100
AcDbEntity
  8
0
  6
ByLayer
 62
  256
370
   -1
100
AcDbLine
 10
-1.499999999999993
 20
12.00000000000003
 11
-1.499999999999993
 21
33.00000000000003
  0
LINE
  5
19A
100
AcDbEntity
  8
0
  6
ByLayer
 62
  256
370
   -1
100
AcDbLine
 10
38.50000000000001
 20
12.00000000000003
 11
38.50000000000001
 21
33.00000000000003
  0
LINE
  5
19B
100
AcDbEntity
  8
0
  6
ByLayer
 62
  256
370
   -1
100
AcDbLine
 10
-1.499999999999993
 20
12.00000000000003
 11
38.50000000000001
 21
12.00000000000003
  0
LINE
  5
19C
100
AcDbEntity
  8
0
  6
ByLayer
 62
  256
370
   -1
100
AcDbLine
 10
-1.499999999999993
 20
16.50000000000003
 11
38.50000000000001
 21
16.50000000000003
  0
LINE
  5
19D
100
AcDbEntity
  8
0
  6
ByLayer
 62
  256
370
   -1
100
AcDbLine
 10
38.50000000000001
 20
33.00000000000003
 11
-1.499999999999993
 21
33.00000000000003
  0
LINE
  5
19E
100
AcDbEntity
  8
0
  6
ByLayer
 62
  256
370
   -1
100
AcDbLine
 10
38.50000000000001
 20
28.50000000000003
 11
-1.499999999999993
 21
28.50000000000003
  0
LINE
  5
19F
100
AcDbEntity
  8
0
  6
ByLayer
 62
  256
370
   -1
100
AcDbLine
 10
7.000000000000007
 20
28.50000000000003
 11
7.000000000000007
 21
16.50000000000003
  0
LINE
  5
1A0
100
AcDbEntity
  8
0
  6
ByLayer
 62
  256
370
   -1
100
AcDbLine
 10
32.50000000000001
 20
16.50000000000003
 11
32.50000000000001
 21
28.50000000000003
  0
LINE
  5
1A1
100
AcDbEntity
  8
construction
  6
ByLayer
 62
  256
370
   -1
100
AcDbLine
 10
-29.24999999999993
 20
106.75
 11
-69.24999999999993
 21
106.75
  0
CIRCLE
  5
1A2
100
AcDbEntity
  8
0
  6
ByLayer
 62
  256
370
   -1
100
AcDbCircle
 10
-8.249999999999936
 20
106.75
 40
14
  0
CIRCLE
  5
1A3
100
AcDbEntity
  8
0
  6
ByLayer
 62
  256
370
   -1
100
AcDbCircle
 10
-8.249999999999936
 20
106.75
 40
5
  0
CIRCLE
  5
1A4
100
AcDbEntity
  8
0
  6
ByLayer
 62
  256
370
   -1
100
AcDbCircle
 10
2.750000000000046
 20
106.75
 40
2
  0
CIRCLE
  5
1A5
100
AcDbEntity
  8
0
  6
ByLayer
 62
  256
370
   -1
100
AcDbCircle
 10
-19.24999999999997
 20
106.75
 40
2
  0
CIRCLE
  5
1A6
100
AcDbEntity
  8
0
  6
ByLayer
 62
  256
370
   -1
100
AcDbCircle
 10
-8.249999999999936
 20
71
 40
14
  0
CIRCLE
  5
1A7
100
AcDbEntity
  8
0
  6
ByLayer
 62
  256
370
   -1
100
AcDbCircle
 10
-8.249999999999936
 20
71
 40
5
  0
CIRCLE
  5
1A8
100
AcDbEntity
  8
0
  6
ByLayer
 62
  256
370
   -1
100
AcDbCircle
 10
2.750000000000046
 20
71
 40
2
  0
CIRCLE
  5
1A9
100
AcDbEntity
  8
0
  6
ByLayer
 62
  256
370
   -1
100
AcDbCircle
 10
-19.24999999999997
 20
71
 40
2
  0
LINE
  5
1AA
100
AcDbEntity
  8
0
  6
ByLayer
 62
  256
370
   -1
100
AcDbLine
 10
90.50000000000001
 20
112.875
 11
121.5000000000001
 21
112.875
  0
LINE
  5
1AB
100
AcDbEntity
  8
0
  6
ByLayer
 62
  256
370
   -1
100
AcDbLine
 10
90.50000000000001
 20
112.875
 11
90.50000000000001
 21
125.125
  0
LINE
  5
1AC
100
AcDbEntity
  8
0
  6
ByLayer
 62
  256
370
   -1
100
AcDbLine
 10
121.5000000000001
 20
112.875
 11
121.5000000000001
 21
125.125
  0
LINE
  5
1AD
100
AcDbEntity
  8
0
  6
ByLayer
 62
  256
370
   -1
100
AcDbLine
 10
121.5000000000001
 20
125.125
 11
90.50000000000001
 21
125.125
  0
LINE
  5
1AE
100
AcDbEntity
  8
0
  6
ByLayer
 62
  256
370
   -1
100
AcDbLine
 10
121.5000000000001
 20
125.125
 11
90.50000000000001
 21
112.875
  0
LINE
  5
1AF
100
AcDbEntity
  8
0
  6
ByLayer
 62
  256
370
   -1
100
AcDbLine
 10
90.50000000000001
 20
125.125
 11
121.5000000000001
 21
112.875
  0
CIRCLE
  5
1B0
100
AcDbEntity
  8
0
  6
ByLayer
 62
  256
370
   -1
100
AcDbCircle
 10
-13.24999999999996
 20
47
 40
3
  0
CIRCLE
  5
1B1
100
AcDbEntity
  8
0
  6
ByLayer
 62
  256
370
   -1
100
AcDbCircle
 10
1.750000000000043
 20
47
 40
3
  0
CIRCLE
  5
1B2
100
AcDbEntity
  8
0
  6
ByLayer
 62
  256
370
   -1
100
AcDbCircle
 10
16.75000000000003
 20
47
 40
3
  0
CIRCLE
  5
1B3
100
AcDbEntity
  8
0
  6
ByLayer
 62
  256
370
   -1
100
AcDbCircle
 10
31.75000000000002
 20
47
 40
3
  0
CIRCLE
  5
1B4
100
AcDbEntity
  8
0
  6
ByLayer
 62
  256
370
   -1
100
AcDbCircle
 10
46.75000000000001
 20
47
 40
3
  0
LINE
  5
1B5
100
AcDbEntity
  8
0
  6
ByLayer
 62
  256
370
   -1
100
AcDbLine
 10
-42.87499999999994
 20
16.37500000000001
 11
-11.8749999999999
 21
16.37500000000001
  0
LINE
  5
1B6
100
AcDbEntity
  8
0
  6
ByLayer
 62
  256
370
   -1
100
AcDbLine
 10
-42.87499999999994
 20
16.37500000000001
 11
-42.87499999999994
 21
28.62500000000001
  0
LINE
  5
1B7
100
AcDbEntity
  8
0
  6
ByLayer
 62
  256
370
   -1
100
AcDbLine
 10
-11.8749999999999
 20
16.37500000000001
 11
-11.8749999999999
 21
28.62500000000001
  0
LINE
  5
1B8
100
AcDbEntity
  8
0
  6
ByLayer
 62
  256
370
   -1
100
AcDbLine
 10
-11.8749999999999
 20
28.62500000000001
 11
-42.87499999999994
 21
28.62500000000001
  0
LINE
  5
1B9
100
AcDbEntity
  8
0
  6
ByLayer
 62
  256
370
   -1
100
AcDbLine
 10
-11.8749999999999
 20
28.62500000000001
 11
-42.87499999999994
 21
16.37500000000001
  0
LINE
  5
1BA
100
AcDbEntity
  8
0
  6
ByLayer
 62
  256
370
   -1
100
AcDbLine
 10
-42.87499999999994
 20
28.62500000000001
 11
-11.8749999999999
 21
16.37500000000001
  0
ARC
  5
1BB
100
AcDbEntity
  8
EDGE
  6
ByLayer
 62
  256
370
   -1
100
AcDbCircle
 10
-145.25
 20
9.000000000000007
 40
2
100
AcDbArc
 50
179.9999999999998
 51
270
  0
ARC
  5
1BC
100
AcDbEntity
  8
EDGE
  6
ByLayer
 62
  256
370
   -1
100
AcDbCircle
 10
-145.25
 20
132.5
 40
2
100
AcDbArc
 50
90
 51
180
  0
LINE
  5
1BD
100
AcDbEntity
  8
EDGE
  6
ByLayer
 62
  256
370
   -1
100
AcDbLine
 10
-145.25
 20
7
 11
198.2499999999994
 21
7
  0
ARC
  5
1BE
100
AcDbEntity
  8
EDGE
  6
ByLayer
 62
  256
370
   -1
100
AcDbCircle
 10
198.2499999999994
 20
9
 40
2
100
AcDbArc
 50
270.0000000000008
 51
0
  0
LINE
  5
1BF
100
AcDbEntity
  8
EDGE
  6
ByLayer
 62
  256
370
   -1
100
AcDbLine
 10
200.2499999999994
 20
9
 11
200.2499999999994
 21
132.5
  0
LINE
  5
1C0
100
AcDbEntity
  8
EDGE
  6
ByLayer
 62
  256
370
   -1
100
AcDbLine
 10
198.2499999999994
 20
134.5
 11
-145.25
 21
134.5
  0
ARC
  5
1C1
100
AcDbEntity
  8
EDGE
  6
ByLayer
 62
  256
370
   -1
100
AcDbCircle
 10
198.2499999999994
 20
132.5
 40
2
100
AcDbArc
 50
0
 51
90
  0
LINE
  5
1C2
100
AcDbEntity
  8
EDGE
  6
ByLayer
 62
  256
370
   -1
100
AcDbLine
 10
-147.25
 20
132.5
 11
-147.25
 21
9.000000000000014
  0
LINE
  5
1C3
100
AcDbEntity
  8
construction
  6
ByLayer
 62
  256
370
   -1
100
AcDbLine
 10
162.7500000000003
 20
81
 11
162.7500000000003
 21
99.5
  0
LINE
  5
1C4
100
AcDbEntity
  8
construction
  6
ByLayer
 62
  256
370
   -1
100
AcDbLine
 10
162.7500000000003
 20
81
 11
163.7500000000003
 21
81
  0
LINE
  5
1C5
100
AcDbEntity
  8
construction
  6
ByLayer
 62
  256
370
   -1
100
AcDbLine
 10
183.2500000000002
 20
75
 11
201.7500000000002
 21
75
  0
LINE
  5
1C6
100
AcDbEntity
  8
0
  6
ByLayer
 62
  256
370
   -1
100
AcDbLine
 10
195.2499999999994
 20
101.5
 11
159.7499999999994
 21
101.5
  0
LINE
  5
1C7
100
AcDbEntity
  8
0
  6
ByLayer
 62
  256
370
   -1
100
AcDbLine
 10
195.2499999999994
 20
101.5
 11
195.2499999999994
 21
83.00000000000001
  0
LINE
  5
1C8
100
AcDbEntity
  8
0
  6
ByLayer
 62
  256
370
   -1
100
AcDbLine
 10
159.7499999999994
 20
101.5
 11
159.7499999999994
 21
83.00000000000001
  0
LINE
  5
1C9
100
AcDbEntity
  8
0
  6
ByLayer
 62
  256
370
   -1
100
AcDbLine
 10
159.7499999999994
 20
83.00000000000001
 11
195.2499999999994
 21
83.00000000000001
  0
LINE
  5
1CA
100
AcDbEntity
  8
0
  6
ByLayer
 62
  256
370
   -1
100
AcDbLine
 10
159.7499999999994
 20
83.00000000000001
 11
195.2499999999994
 21
101.5
  0
LINE
  5
1CB
100
AcDbEntity
  8
0
  6
ByLayer
 62
  256
370
   -1
100
AcDbLine
 10
159.7499999999994
 20
101.5
 11
195.2499999999994
 21
83.00000000000001
  0
LINE
  5
1CC
100
AcDbEntity
  8
0
  6
ByLayer
 62
  256
370
   -1
100
AcDbLine
 10
195.2499999999994
 20
92.25000000000001
 11
159.7499999999994
 21
92.25000000000001
  0
LINE
  5
1CD
100
AcDbEntity
  8
0
  6
ByLayer
 62
  256
370
   -1
100
AcDbLine
 10
177.4999999999994
 20
83.00000000000001
 11
177.4999999999994
 21
101.5
  0
LINE
  5
1CE
100
AcDbEntity
  8
construction
  6
ByLayer
 62
  256
370
   -1
100
AcDbLine
 10
195.2499999999994
 20
92.25000000000001
 11
213.7499999999994
 21
92.25000000000001
  0
LINE
  5
1CF
100
AcDbEntity
  8
0
  6
ByLayer
 62
  256
370
   -1
100
AcDbLine
 10
154.7499999999994
 20
101.5
 11
119.2499999999994
 21
101.5
  0
LINE
  5
1D0
100
AcDbEntity
  8
0
  6
ByLayer
 62
  256
370
   -1
100
AcDbLine
 10
154.7499999999994
 20
101.5
 11
154.7499999999994
 21
83.00000000000001
  0
LINE
  5
1D1
100
AcDbEntity
  8
0
  6
ByLayer
 62
  256
370
   -1
100
AcDbLine
 10
119.2499999999994
 20
101.5
 11
119.2499999999994
 21
83.00000000000001
  0
LINE
  5
1D2
100
AcDbEntity
  8
0
  6
ByLayer
 62
  256
370
   -1
100
AcDbLine
 10
119.2499999999994
 20
83.00000000000001
 11
154.7499999999994
 21
83.00000000000001
  0
LINE
  5
1D3
100
AcDbEntity
  8
0
  6
ByLayer
 62
  256
370
   -1
100
AcDbLine
 10
119.2499999999994
 20
83.00000000000001
 11
154.7499999999994
 21
101.5
  0
LINE
  5
1D4
100
AcDbEntity
  8
0
  6
ByLayer
 62
  256
370
   -1
100
AcDbLine
 10
119.2499999999994
 20
101.5
 11
154.7499999999994
 21
83.00000000000001
  0
LINE
  5
1D5
100
AcDbEntity
  8
0
  6
ByLayer
 62
  256
370
   -1
100
AcDbLine
 10
154.7499999999994
 20
92.25000000000001
 11
119.2499999999994
 21
92.25000000000001
  0
LINE
  5
1D6
100
AcDbEntity
  8
0
  6
ByLayer
 62
  256
370
   -1
100
AcDbLine
 10
136.9999999999994
 20
83.00000000000001
 11
136.9999999999994
 21
101.5
  0
ENDSEC
  0
SECTION
  2
OBJECTS
  0
DICTIONARY
  5
C
330
0
100
AcDbDictionary
281
    1
  3
ACAD_GROUP
350
D
  0
DICTIONARY
  5
D
330
C
100
AcDbDictionary
281
    1
  0
PLOTSETTINGS
  5
1D7
100
AcDbPlotSettings
  6
1x1
 40
0
 41
0
 42
0
 43
0
  0
ENDSEC
  0
EOF
